<?xml version="1.0" encoding="UTF-8"?>
<!DOCTYPE svg PUBLIC "-//W3C//DTD SVG 1.1//EN" "http://www.w3.org/Graphics/SVG/1.1/DTD/svg11.dtd">
<!-- Creator: CorelDRAW -->
<svg xmlns="http://www.w3.org/2000/svg" xml:space="preserve" width="42.3332mm" height="33.8666mm" version="1.1" style="shape-rendering:geometricPrecision; text-rendering:geometricPrecision; image-rendering:optimizeQuality; fill-rule:evenodd; clip-rule:evenodd"
viewBox="0 0 4233.32 3386.66"
 xmlns:xlink="http://www.w3.org/1999/xlink"
 xmlns:xodm="http://www.corel.com/coreldraw/odm/2003">
 <defs>
  <style type="text/css">
   <![CDATA[
    .fil0 {fill:#2B2A29}
   ]]>
  </style>
 </defs>
 <g id="Warstwa_x0020_1">
  <metadata id="CorelCorpID_0Corel-Layer"/>
  <g id="_1829803039712">
   <path class="fil0" d="M1640.23 960.98c-1.48,17.45 -7.89,2.87 2.89,11.78 9.71,-6.15 12.63,-9.25 27.96,-11.34 -6.51,29.83 -4.96,1.53 -17.1,25.05 -6.89,13.34 -3.55,6.62 3.21,16.88 0.39,0.58 1.92,3.61 2.23,2.84 0.32,-0.8 1.68,1.89 2.61,3.79l17.35 -4.71c37.25,-3.34 52.74,-41.9 124.97,40.76 138.7,158.75 315.93,709.15 442.6,924.62 43.74,74.4 109.23,173.66 206.35,178.49 52.94,2.63 99.57,-36.68 125.36,-65.35 14.31,-15.92 26.6,-36.57 39.68,-55.77 15.53,-22.8 21.57,-40.49 33.8,-66.15 21.98,-46.1 38.26,-88.04 57.66,-137.53 43.97,-112.17 117.96,-322.35 184.72,-398.59 0.69,-1.14 1.75,-4.17 2.13,-3.39l45.9 -48.16c69.75,-55.54 118.2,-33.64 169.57,17.3 31.05,30.78 103.89,123.96 121.36,133.1 -7.09,13.56 4.11,0.54 -8.28,12.26 36.52,4.99 25.69,17.15 62.51,23.06 5.67,0.91 6.19,0.27 12.29,1.83 10.5,2.68 4.39,-0.34 10.99,4.31l0.62 19.01 -71.76 12.23 72 -6.32c-11.1,35.8 -45.98,70.57 -62.76,111.83 -8.76,15.53 -33.91,55.62 -48.41,67.48 -32.16,53.64 -106.74,133.2 -146.49,175.82 -46.55,49.92 -116.63,101.78 -176.73,145.56 -63.8,46.47 -130.68,80.51 -205.03,116.88 -32.3,15.8 -202.89,93.74 -227.93,94.96 -13.52,16.36 -34.59,14.39 -51.99,27.13l-13.51 12.62c-8.56,6.16 -5.71,3.41 -13.96,7.55 -1.21,0.61 -4.84,2.35 -6.06,2.99l-14.9 7.9c-0.94,0.44 -2.14,0.94 -3.09,1.37l-58.46 23.12c-7.42,2.3 -14.59,3.38 -24.44,4.04 5.89,4.58 3.54,5.01 14.48,8.33 15.99,4.86 7.75,1.03 17.44,-0.01 27.23,-2.93 17.24,1.06 39.15,3.06l-12.45 6.22c-0.83,0.47 -2.05,1.13 -2.88,1.63l-21.85 13.36c-36.99,16.88 -117.21,41.66 -132.94,62.7 22.95,-6.15 19.43,-10.74 42.78,-12.85 18.5,-0.65 223.04,-88.98 263.55,-106.93 46.86,-20.78 86.14,-34.75 131.66,-54.98 41.65,-18.52 84.52,-38.5 127.08,-55.94 16.18,-11.48 32.57,-17.22 49.48,-26.46 16.8,-9.17 32.68,-17.51 49.47,-27.21 37.21,-21.49 61.1,-40.78 91.96,-59.83 31.08,-13.1 151.11,-117.64 179.27,-146.05 29.59,-29.86 51.39,-52.5 78.99,-84.48 20.81,-24.11 53.36,-61.26 72.23,-89.87 7.75,-13.97 29.67,-49.46 41.99,-60.17 17.74,-36.51 47.72,-76 70.95,-119.42 30.37,-56.78 193.65,-345.69 201.37,-380.46 12.18,0.69 7.94,-0.43 15.67,3.48 -2.41,-14.15 -8.81,-27.12 -12.13,-43.04 -7.37,-35.34 -21.56,-53.55 -51.93,-78.94l-12.44 -8.81c-0.62,-1.83 -2.42,-1.45 -3.66,-2.12 -47.05,-4.97 -188.71,-33.56 -225.08,-28.71l-33.55 7.26c-0.25,0.63 -0.73,2.02 -1.09,2.64 -12.15,21.08 -6.25,-11.69 -25.56,31.01 -10.6,3.03 -14.77,6.89 -23.71,0.52 9.6,5.02 28.81,7.3 42.84,8.89 17.14,1.95 31.81,3.08 44.46,12.62 40.65,6.41 81.11,10.72 121.58,16.46 27.56,3.91 102.23,8.91 121.97,20.58 -5.36,28.89 -94.31,190.66 -117.57,234.79 -13.56,25.7 -28.46,46.55 -39.1,74.93 -123.53,0.55 -188.65,-220.78 -323.14,-231.45 -70.63,-5.6 -90.19,16.14 -135.44,44.06 -7.37,8.41 -16.32,15.1 -26.11,24.87l-25.85 26.2c-4.37,12.65 -26.87,43.15 -37.6,60.23 -33.96,54.07 -72.47,140.7 -94.67,196.18 -38.26,95.64 -70.17,183.17 -109.71,275.93 -28.77,67.5 -97.96,224.24 -201.16,161.2 -58.21,-35.56 -118.82,-146.57 -157.55,-228.85 -84.93,-180.45 -152.64,-366.75 -234.08,-542.58 -45.54,-98.31 -134.53,-298.1 -234.19,-351.55 -48.72,-26.13 -109.1,-18.46 -140.79,14.31z"/>
   <path class="fil0" d="M1290.62 1805.98c-16.79,7.95 -16.16,15.22 -29.37,27.97 3.64,-20.02 7.42,-11.37 12.91,-31.16 -29.86,23.44 -34.37,21.2 -26.6,-18.72l-6.01 1.45c-7.12,-4.03 -2.52,10.42 -5.51,-8.13 -26.16,20.93 -48.16,79.69 -112.62,108.28 -61.72,27.38 -132.62,-36.89 -141.06,-56.18 5.6,-11.6 14.55,-18.36 24.15,-32.98 30.68,-46.71 36.71,-43.51 23.7,-75.47 -24.69,-60.7 -47.61,-2.69 -56.07,4.01 -2.94,14.55 -4.63,16.71 -10.84,24.68 -27.53,35.35 -145.92,148.21 -180.05,182.7 -16.23,16.41 -52.01,57.48 -76.23,61.2 -16.3,-39.63 -31.65,-81.05 -46.27,-121.9l-43.98 -124.43c-15.92,-38.54 -84.23,-223.06 -85.76,-253.19 95.58,-1.14 152.8,57.3 200.2,107.17 51.55,54.24 93.34,117.16 130.7,180.31 7.43,-5.12 10.51,-8.78 17.46,-16.1l14.07 -14.17c6.04,-5.08 1.83,-2.18 9.31,-6.92 -6.19,-45.44 -97.65,-163.58 -126.42,-192.61 -135.11,-136.33 -176.38,-86.06 -210.11,-112.9 13.72,-34.27 109.9,-67.41 138.81,-84.75 24.52,-14.7 24.01,-17.43 62.52,-11.29 -19.54,-6.63 -47.5,-12.37 -69.13,-12.49 -13.46,-0.06 -27.85,1 -41.34,1.71 -20.35,1.07 -27.76,6.45 -29.18,-7.51 -11.36,5.38 -2.82,0.45 -13.16,7.93 -12,8.7 -11.09,12.98 -24.31,18.82 1.18,-18.77 8.6,-28.47 15.2,-42.67l39.48 -77.46c42.53,-83.52 44.37,-113.11 112.75,-168.58 45.99,-37.3 85.66,-66.93 128.8,-103.13 17.28,-14.5 114.83,-94.73 122.89,-107.38l-19.17 6.37c-17.17,0.08 -0.14,-5.09 -25.75,4.95 0.07,-34.62 -2.94,-16.28 -22.39,-23.41 12.1,-32.35 12.41,0.65 18.38,-31.14l-179.47 144.73c-50.18,40.95 -124.96,104.26 -157.44,164.8l-162.06 321.12c-14.92,54.18 11.42,97.55 24.22,138.03 24.8,78.45 61.46,158.58 85.68,236.78l65.7 175.15c8.34,21.59 8.8,44.56 19.95,62.8 16.5,27 198.54,87.03 229.8,94.59 53.12,12.84 253.78,90.86 264.37,36.44l-1.61 -51.37c-35.36,-11.16 -91.9,-1.94 -188.78,-37.36 -49.06,-17.94 -105.92,-22.04 -178.24,-54.43 3.61,-17.99 2.58,-13.83 13.84,-26.22l57.12 -52.07c82.72,-70.98 56.82,-94.6 122.84,-42.74 50.38,39.58 101.89,52.07 168.15,33.02 43.42,-12.48 129.82,-101.62 145.93,-146.15z"/>
   <path class="fil0" d="M2201.82 2472.67c-23.35,2.11 -19.83,6.7 -42.78,12.85 15.73,-21.04 95.95,-45.82 132.94,-62.7l21.85 -13.36c0.83,-0.5 2.05,-1.16 2.88,-1.63l12.45 -6.22c-21.91,-2 -11.92,-5.99 -39.15,-3.06 -9.69,1.04 -1.45,4.87 -17.44,0.01 -10.94,-3.32 -8.59,-3.75 -14.48,-8.33 9.85,-0.66 17.02,-1.74 24.44,-4.04l58.46 -23.12c0.95,-0.43 2.15,-0.93 3.09,-1.37l14.9 -7.9c1.22,-0.64 4.85,-2.38 6.06,-2.99 8.25,-4.14 5.4,-1.39 13.96,-7.55l13.51 -12.62 -35.94 11.16c-31.92,16.75 -75.23,33.27 -111.79,48.94 -39.14,16.77 -75.43,29.86 -115.57,48.08 -11.21,5.16 -24.2,7.31 -39.16,13.92 -17.54,7.76 -24.91,13.04 -43.39,18.26 -35.56,17.99 -86.78,37.77 -126.87,53.15 -23.46,9 -40.55,17.11 -63.15,26.66 -18.38,7.76 -44.59,21.62 -67.46,28.74 -10.51,4.48 -46.79,22.33 -56.82,24.58 -18.94,4.24 -49.76,-12.08 -61.76,-22.5l-0.17 -0.72c-20.89,-4.48 -241.66,-115.41 -255.67,-127.04l-7.43 -2.23c-16.95,-7.33 -29.36,-15.1 -44.77,-23.32 -21.13,-11.28 -21.12,-16 -27.39,-41.14l-57.02 -216.82c19.51,-17.41 50.54,-23.67 92.04,-64.07 139.68,-135.99 197.71,-336.57 269.24,-517.33 15.06,-38.05 26.11,-74.79 40.07,-114.25 19.32,-54.64 20.05,-39.89 -1.27,-88.47l-16.95 -28.04 -12.07 23.02c-2.8,7.2 -6.96,18.22 -9.88,26.09 -7.42,20.01 -12.83,35.49 -19.61,53.39 -54.78,144.62 -128.2,381.84 -213.26,499.97 -31.09,43.18 -87.27,127.43 -144.24,140.7 -10.84,-38.48 -20.88,-106.71 -36.96,-136.8 -17.37,3.15 -37.6,16.25 -50.31,28.43 0.95,42.42 75.17,325.12 91.25,382.77 32.02,114.84 11.41,81.32 184.92,168.22l240.32 117.92c36.91,17.59 53.13,1.54 89.62,-12.91 35.47,-14.05 406.75,-161.42 420.76,-176.33z"/>
   <path class="fil0" d="M2651.4 540.7c9.34,5.76 284.13,113.29 297.13,114.27 22.79,5.02 10.24,9.48 47.88,21.09 46.62,14.38 46.7,17.7 79.71,47.43 5.53,4.98 11.07,9.34 16.88,14.41l17.73 19.68 1.38 0.61c31.89,33.94 64.31,61.29 96.48,91.71 30.56,28.87 63.67,62.07 97.12,93.68 27.33,25.82 183.65,172.99 189.62,187.86 1.24,0.67 3.04,0.29 3.66,2.12l12.44 8.81c30.37,25.39 44.56,43.6 51.93,78.94 3.32,15.92 9.72,28.89 12.13,43.04 -0.41,21.1 100.04,342.92 114.16,394.61 7.83,28.65 29.49,119.63 36.79,131.68 9.84,8.02 3.32,-0.9 10.13,13.2 0.02,0.06 3.89,13.44 3.95,13.63 8.79,30.07 21.59,56.19 16.83,97.74 9.04,-30.05 2.35,-39.91 1.79,-76.63 0.84,-0.55 2.59,-1.59 2.95,-0.68 0.34,0.88 2.37,-0.51 2.83,-0.65 19.66,-6.04 6.61,-2.21 17.44,-18.88l14.81 37.33c13.18,57.38 21.59,36.17 -19.62,110.05 6.85,5.48 -2.75,3.28 10.1,0.02 7.46,-6.28 21.76,-35.56 27.14,-49.34 8.65,-22.18 0.08,-42.95 -6.05,-66.9 -52.06,-203.37 -125.5,-436.98 -187.31,-640.8 -19.14,-63.11 -24.2,-62.23 -61.6,-101.41 -116.99,-122.57 -292.55,-286.53 -419.76,-406.82 -34.19,-32.32 -43.1,-46.65 -94.63,-69.36 -36.3,-15.99 -77.68,-32.68 -118.9,-48.98 -39.94,-15.8 -212.38,-90.1 -239.25,-90.37l-18.87 -0.79c4.34,9.32 5.13,6.29 4.03,15.69l-5.01 12.13c-12.65,20.12 -17.74,4.19 -16.04,21.88z"/>
   <path class="fil0" d="M960.62 808.86c-5.97,31.79 -6.28,-1.21 -18.38,31.14 19.45,7.13 22.46,-11.21 22.39,23.41 25.61,-10.04 8.58,-4.87 25.75,-4.95l19.17 -6.37c25.53,-11.04 108.84,-88.69 138.05,-112.85 16.11,-13.32 128.52,-108.76 136.82,-109.32 -7.26,19.47 -12.27,41.93 -18.24,64.71 -78.29,298.87 -214.37,349.23 -236.25,384.76 -4.71,9.86 -4.22,7.06 -10.14,13.76 -20.89,23.65 -1.45,13.98 -15.21,35.37 3.91,1.42 9.85,3.27 12.52,5.15 9.17,6.45 4.17,-0.94 9.24,9.99 -6.73,12.48 -9.61,12.98 -22.27,20.19l17.9 -3.84c12.23,-1.94 7.9,-0.46 19.6,-8.94 90.06,-65.17 148.58,-121.34 204.09,-222.75 17.93,-32.76 83.11,-201.12 96.26,-248.05 6.82,-24.34 13.62,-64.86 24.14,-90.14 28.29,-5.35 69.64,30.44 91.24,44.53 35.47,23.13 231.59,150.47 244.43,150.21l55.26 9.89 3.47 -20.86c4.54,-23.85 2.24,-5.15 -11.13,-22.17 -7.36,-9.37 -0.25,3.94 -6.52,-10.31 -41.29,-32.17 -92.79,-59.2 -143.74,-94.2 -41.03,-28.18 -112.76,-64.53 -142.28,-94.01 5.55,-4.35 -3.04,-0.11 9.65,-4.96l32.94 -6.95c16.77,-2.56 33.92,-4.14 48.81,-6.2 16.74,-2.33 30.32,-4.11 48.09,-6.26 5.13,-0.62 18.6,-1.89 24.24,-3.07l14.13 -4.95c0.52,-1.36 2.09,-1 2.96,-1.75 -18.3,-3.56 -152.22,13.69 -174.14,17.85 21.92,-0.04 17.23,-4.94 35.45,-8.25 11.91,-2.17 31.96,-2.05 44.56,-2.19 -4.96,-18.62 14.82,-7.74 -17.8,-12.24 -3.44,-0.48 -23.06,0.41 -28.22,0.47 -43.28,0.46 -18.92,-4.91 -38.31,-8.88 9.2,-0.18 35.05,-4.12 43.02,-7.41 21.58,-8.91 7.23,-11.96 -1.08,-17.75 20.67,-0.36 5.55,1.53 11.31,-6.83 -34.68,1.61 -166.53,19.71 -187.5,33.54l-364.28 301.48z"/>
   <path class="fil0" d="M2531.3 2606.55c-1.97,-9.07 6.25,-0.74 -4.61,-13.01 16.6,8.08 -2.63,4.53 12.66,6.67 25.58,3.57 2.12,-0.95 17.26,-3.72l13.28 -0.21c7.79,0.31 15.04,0.69 23.09,0.69l-13.6 -17.95c1.07,-0.46 2.39,-2.47 2.68,-1.69l7.16 -5.46c-27.12,-21.94 -44.74,-39.96 -68.12,-66.9 -62.81,-72.38 -45.07,-89.99 -91.98,-66.91l-20.18 11.49c-9.68,6.65 -2.39,0.97 -8.77,6.73 6.65,59.09 89.4,293.45 116.82,356.56 7.51,17.28 43.69,97.98 39.05,108.97l-168.14 -202.17c-26.21,-33.45 -143.73,-158.7 -181.59,-190.36l-58.83 22.8 148.71 163.89c52.72,57.57 309.78,369.63 350.47,430.9 15.8,23.79 50.65,84.42 87.67,36.11 6.82,-39.95 -38.8,-114.02 -52.83,-149.01 -35.02,-87.39 -161.57,-367.67 -166.18,-432.3 5.89,1.96 10.58,2.88 15.98,4.88z"/>
   <path class="fil0" d="M3266.27 1831.08l12.11 21.07c6.1,8.02 11.49,14.62 15.72,20.17 60.93,79.99 149.05,218.12 158.67,316.9l-9.35 1.86c10.98,12.03 7.98,2.69 11.88,25.45 1.97,11.53 1.36,22.55 0.17,36.35l-71.18 -1.95 75.83 5.38c3.56,20.35 6.68,55.7 -7.79,69.74 -0.8,111.19 -163.84,264.6 -259.84,321.8 -108.31,64.54 -231.06,78.72 -357.85,46.38 -26.38,-6.73 -87.73,-32.17 -108.92,-34.52l-9.71 2.93c107.76,41.6 198.68,75.23 324.01,54.97 50.59,-8.18 86.34,-24.83 106.47,-25.04l22.24 22.6c-68.56,52.4 -238.23,48.8 -326.06,36.39 -23.18,-3.27 -34.38,-11.51 -45.35,-2.05 55.65,30.25 210.26,30.5 279.56,14.8 86.35,-19.57 160.28,-61.74 216.06,-106.97 107.1,-86.86 204.82,-188.92 230.51,-332.71 4.91,-27.53 2.71,-49.94 7.2,-77.33l-7.26 -59.3 9.86 -8.28 -13.04 -1.17c-10.35,-91.29 -77.59,-204.81 -127.31,-277.54 -8.83,-12.91 -18.95,-28.74 -27.73,-40.18 -9.2,-11.99 -18.84,-21.91 -25.92,-34.19l-3.11 5.54c-2.63,9.31 -0.65,7.75 5.23,20.42 -16.05,-4.72 -8,-6.84 -21.21,-6.62 -20.63,0.34 6.08,8.96 -18.51,0.85 -11.73,-3.87 -25.35,-21.82 -34.59,-30.12l-0.79 14.37z"/>
   <path class="fil0" d="M2129.15 2124.74l13.63 3.01c14.3,-11.22 5.88,-9.83 19.74,-21.65l-8.2 -14.9c-0.48,-0.33 -1.54,-1.04 -2.05,-1.36l-23.98 -13.55c-26.05,-15.38 5,3.99 -11.52,-31.46 -0.45,-0.96 -1.51,-2.46 -2.06,-3.79 -7.64,-11.4 -27.38,-31.27 -38.62,-44.79 -62.67,-75.33 -162.89,-316.24 -196.38,-413.33 -25.94,-75.2 -179.76,-449.56 -213.88,-479.77 -54.19,64.11 -34.34,53.61 -2.84,124.2 19.84,44.46 39.06,94.64 59.02,136.63l111.21 279.06c35.88,101.76 125.91,311.73 192.91,393.82 22.33,27.37 74.92,81.81 103.02,87.88z"/>
   <path class="fil0" d="M2314.53 360.72c-7.94,11.81 -10.96,11.86 -23.85,22.5 -8.14,6.73 -12.9,12.02 -20.81,20 -15.42,15.54 -27.2,34.68 -40.66,46.84 -51.95,41.9 -269.77,375.62 -280.1,418.81l61.9 6.87c26.32,-38.8 44.86,-77.12 71.9,-118.79 48.5,-74.74 191.24,-293.7 250.58,-321.57 28.39,14.91 69.23,146.48 82.91,183.8 13.78,37.58 69.21,162.73 73.37,192.44l25.26 8.74c25.93,-24.44 12.92,-21.92 31.36,-26.25l0.48 -16.55c-3.28,-17.73 -115.03,-297.24 -119.1,-303.53 -4.79,-8.93 -6.7,-18.11 -12.12,-29.85 -3.66,-7.93 -8.44,-16.79 -14.15,-27.26 -13.62,-24.96 -23.07,-29.97 -32.86,-45.7 -21.64,-13.42 -22.94,-14.24 -54.11,-10.5z"/>
   <path class="fil0" d="M2531.3 2606.55c3.13,5.61 1.71,4.22 8.74,10.89l107.67 74.27c11.35,130.02 7.88,134.91 65.51,261.31 13.44,29.48 95.76,217.36 107.47,223.44 28.72,2.96 32.5,-1.08 45.36,-20.73 12.32,-38.94 -149.32,-278.86 -148.02,-428.31l79.29 22.09c10.97,-9.46 22.17,-1.22 45.35,2.05 87.83,12.41 257.5,16.01 326.06,-36.39l-22.24 -22.6c-20.13,0.21 -55.88,16.86 -106.47,25.04 -125.33,20.26 -216.25,-13.37 -324.01,-54.97l9.71 -2.93c-21.98,-16.12 -48.95,-26.32 -72.63,-41.65 -23.32,-15.11 -47.44,-30.11 -63.87,-46.19l-7.16 5.46c-0.29,-0.78 -1.61,1.23 -2.68,1.69l13.6 17.95c-8.05,0 -15.3,-0.38 -23.09,-0.69l-13.28 0.21c-15.14,2.77 8.32,7.29 -17.26,3.72 -15.29,-2.14 3.94,1.41 -12.66,-6.67 10.86,12.27 2.64,3.94 4.61,13.01z"/>
   <path class="fil0" d="M1512.4 473.84c-5.76,8.36 9.36,6.47 -11.31,6.83 8.31,5.79 22.66,8.84 1.08,17.75 -7.97,3.29 -33.82,7.23 -43.02,7.41 19.39,3.97 -4.97,9.34 38.31,8.88 5.16,-0.06 24.78,-0.95 28.22,-0.47 32.62,4.5 12.84,-6.38 17.8,12.24 -12.6,0.14 -32.65,0.02 -44.56,2.19 -18.22,3.31 -13.53,8.21 -35.45,8.25 21.92,-4.16 155.84,-21.41 174.14,-17.85 32.65,3.79 537.75,-75.06 586.87,-81.53 9.41,8 3.17,-1.79 4.73,12.52 13.46,-12.16 25.24,-31.3 40.66,-46.84 7.91,-7.98 12.67,-13.27 20.81,-20 12.89,-10.64 15.91,-10.69 23.85,-22.5 -61.55,2.18 -147.93,15.69 -200.67,26.78 -61.9,13.02 -140.86,20.12 -203.28,29.4l-398.18 56.94z"/>
   <path class="fil0" d="M1670.6 2581.63c12,10.42 42.82,26.74 61.76,22.5 10.03,-2.25 46.31,-20.1 56.82,-24.58l-18.8 -1.01c0.39,-23.23 -15.51,-50.63 -22.14,-76.55 -9.36,-36.61 -26.55,-158.54 0.97,-184.87 0.63,-0.6 1.63,-1.55 2.29,-2.12 0.66,-0.57 1.69,-1.48 2.39,-2.01 22.36,-17.15 41.3,-4.47 53.74,0.85 129.3,55.27 116.96,55.89 217.31,133.35 14.31,11.05 18.89,13.43 21.72,23.81 18.48,-5.22 25.85,-10.5 43.39,-18.26 14.96,-6.61 27.95,-8.76 39.16,-13.92l-13.79 1.43c-19.57,-11.81 -97.78,-99.53 -217.47,-161.78 -26.37,-13.71 -57.28,-24.55 -93.79,-30.15 -108.74,-16.66 -109.75,49.68 -118.67,69.17 -41.57,90.78 7.63,203.56 11.27,271.43l-26.16 -7.29z"/>
   <path class="fil0" d="M627.9 1324.56c1.42,13.96 8.83,8.58 29.18,7.51 13.49,-0.71 27.88,-1.77 41.34,-1.71 21.63,0.12 49.59,5.86 69.13,12.49 67.61,32.41 83.11,36.95 130.49,82.61 65.86,63.46 130.9,157.91 168.69,249.4 10.67,25.82 47.34,136.27 58.61,150.96 8.86,-4.48 1.72,-0.41 8.7,-5.66l14.4 -13.05c4.83,-4.6 14.71,-13.47 17.4,-18.84 11.65,-23.29 -42.95,-137.92 -52.97,-159.28 -57.74,-123.2 -155.21,-262.57 -275.29,-324.74 -38.29,-19.82 -64.26,-31.7 -116.56,-33.31 -55.36,-1.7 -66.58,30.07 -93.12,53.62z"/>
   <path class="fil0" d="M1831.99 1989.62c-14.35,35.42 -60.36,103.89 -86.96,132.91 -47.81,52.19 -42.69,56.63 -111.1,106.75 -32.13,23.55 -251.82,150.79 -284.01,158.88 -1.54,8.03 1.35,3.93 -5.62,13.25l-9.13 -14.23c6.27,25.14 6.26,29.86 27.39,41.14 15.41,8.22 27.82,15.99 44.77,23.32l-4.05 -16.26c50.02,-17.43 252.47,-139.86 291.93,-167.17 74.97,-51.89 170.85,-178.23 196.02,-259.31l1.38 -33.99c-16.38,-14.12 -9.67,-14.09 -36.87,-19l-14.86 25.92c-6.6,7.42 0.13,1.74 -8.89,7.79z"/>
   <path class="fil0" d="M2541.05 1459.94c1.77,19.42 -23.35,66.18 -34.01,100.41l-4.77 14.5c-0.38,1.12 -0.82,2.28 -1.2,3.39 -0.36,1.06 -0.79,2.23 -1.14,3.28 -0.36,1.04 -0.76,2.22 -1.11,3.25 -0.34,1.03 -0.73,2.23 -1.07,3.27l-3.21 10.17c-8.97,26.93 -5.79,2.08 -6.65,22.38 -2.33,-4.14 -4.78,3.62 1.46,-14.07 3.04,-8.62 8.53,-17.88 10.69,-22.39l20.89 -48.09c0.4,-0.92 0.94,-2.1 1.33,-3.03l33.78 -73.45 14.7 28.19c10.73,-15.9 2.73,-16.91 17.74,-21.98l-41.28 113.99c-3.74,8.24 -7.55,13.47 -4.78,23.07 3.31,-17.42 7.71,-26.19 20.04,-33.98 12.32,-20.21 20.73,-53.83 30.24,-75.64 31.25,-71.71 68.75,-151.95 111.71,-214.68 24.55,-35.86 67.29,-77.22 115.33,-103.07 106.85,-57.5 168.51,-17.04 175.63,-54.91l-0.72 -47.5c-122.77,-18.37 -244.02,55.49 -301.36,117.2 -38.58,41.52 -59.78,75.51 -87.98,125.71 -14.22,25.3 -60.52,118.03 -64.26,143.98z"/>
   <path class="fil0" d="M2758.7 2532.45c-2.44,18.64 -1.54,-2.68 0.07,8.08 4.77,31.78 22.05,32.18 33.45,41.28l14.74 -5.18 119.2 -63.96c91.3,-43.41 281.01,-85.31 406.57,-157.08 8.13,-9.08 -10.13,-5.33 13.01,-9.24 -6.88,-4.81 -13.77,-2.69 -21.07,-0.69 1.79,-2.69 3.55,-2.96 6.95,-9.01 11.39,-20.24 1.01,-18.61 -6.87,-22.15 -21.85,-9.79 -15.43,9.93 -28.39,-7.96l-13.85 4.37c-16.65,0.36 -110.36,40.73 -130.91,49.75 -42.9,18.82 -97.36,33.86 -143.63,48.37 -94.7,29.69 -182.55,77.69 -249.27,123.42z"/>
   <path class="fil0" d="M2059.25 1042.58l69.94 109.93c43.73,70.51 156.37,348.72 168.05,363.61 12.46,8.39 3.28,-6.03 15.36,17.72 4.5,8.84 4.7,14.26 6.39,25.17 7.65,-10.05 3.19,3.49 4.3,-10.74 1.17,-14.85 -14.86,-28.89 -24.46,-71.47 15.45,2.61 6.38,-2.91 14.62,13.92 0.98,-1.11 1.98,-4.53 2.35,-3.75l8.6 -19.04 47.67 106.03c11.56,-11.59 8.5,1.34 6.17,-19.16 -2.85,-15.41 -25.47,-59.74 -34.24,-80.81l-105.6 -244.35c-25.22,-61.67 -130.6,-255.97 -191.15,-269.91 -19.65,-4.82 -3.64,-7.27 -15.19,4.48 6.84,3.29 56.68,45.63 62.28,56.82 -3.27,0.97 -10.11,0.68 -16.88,5.96 -10.95,8.55 -9.48,-4.31 -5.36,12.21 -1.14,-2.85 -1.67,-0.91 -6.61,-9.06 -8.93,9.31 -12.11,-12.49 -6.24,12.44z"/>
   <path class="fil0" d="M1275.2 1117.31c-0.7,25.65 -9.48,35.42 -18.24,52.06 -9.07,17.23 -50.9,138.97 -58.97,143.66 9.02,-2.47 19.67,-33.95 22.4,-42.39l24.34 6.75c7.24,-1.58 9.07,-6.82 11.95,-12.21 14.53,-27.3 4.84,6.82 19.77,-19.87 15.31,-27.38 -3.85,-4.57 26.62,-50.61 13.95,-21.06 5.78,-25.51 23.87,-34.79 9.59,-12.95 21.75,-44.3 32.72,-63.03 15.58,-26.62 23.74,-38.58 39.67,-56.43 74.51,-83.5 104.96,-21.28 125.7,-24.19 16.97,-8.91 34.07,-31.75 41.58,-55.05 -32.94,-20.12 -50.57,-33.68 -100.7,-31.51 -99.25,4.3 -184.18,150.25 -190.71,187.61z"/>
   <path class="fil0" d="M3098.39 1240.71c5.18,5.5 -7.77,5.9 9.34,4.57l1.36 -99.63 164.55 20.02c-12.65,-9.54 -27.32,-10.67 -44.46,-12.62 -14.03,-1.59 -33.24,-3.87 -42.84,-8.89 8.94,6.37 13.11,2.51 23.71,-0.52 19.31,-42.7 13.41,-9.93 25.56,-31.01 0.36,-0.62 0.84,-2.01 1.09,-2.64l33.55 -7.26c-36.14,-19.26 -126.27,-7.26 -160.64,-26.48 -10.21,-10.3 -5.13,-198.18 -5.16,-241.44l0.64 -63.31c3.89,-17.23 -6.87,-6.81 7.02,-13.31l-1.38 -0.61 -14.01 4.56c3.96,48.66 2.02,112.28 3.82,163.51 1.57,44.52 -7.34,120.99 -2.36,157.34 -7.63,-26.56 -8.07,-156.33 -7.65,-193.68 0.99,-88.25 15.43,-146.53 -35.1,-160.76l1.83 487.55 34.34 8.01 6.79 16.6z"/>
   <path class="fil0" d="M3728.32 1807.86c8.06,30.01 32.78,79.32 17.42,108.77 -28.36,52.17 -60.65,107.71 -87.19,152.22 -34.6,58.05 -63.74,79.26 -125.3,110.87l-9.86 8.28 7.26 59.3c72.21,-19.76 120.8,-59.26 156.25,-108.94 22.66,-31.76 89.58,-134.16 100.75,-172.59 -12.85,3.26 -3.25,5.46 -10.1,-0.02 41.21,-73.88 32.8,-52.67 19.62,-110.05l-14.81 -37.33c-10.83,16.67 2.22,12.84 -17.44,18.88 -0.46,0.14 -2.49,1.53 -2.83,0.65 -0.36,-0.91 -2.11,0.13 -2.95,0.68 0.56,36.72 7.25,46.58 -1.79,76.63 4.76,-41.55 -8.04,-67.67 -16.83,-97.74 -0.06,-0.19 -3.93,-13.57 -3.95,-13.63 -6.81,-14.1 -0.29,-5.18 -10.13,-13.2l1.88 17.22z"/>
   <path class="fil0" d="M1236.04 1777.39c2.99,18.55 -1.61,4.1 5.51,8.13l6.01 -1.45c-7.77,39.92 -3.26,42.16 26.6,18.72 -5.49,19.79 -9.27,11.14 -12.91,31.16 13.21,-12.75 12.58,-20.02 29.37,-27.97 37.01,-47.96 152.72,-314.1 167.48,-386.66 -12.73,7.22 -0.61,-2.16 -8.59,7.99 -10.97,13.94 -0.27,6.98 -10.98,20.48 -0.64,-16.93 2.33,-21.25 7.25,-33.84 5.58,-14.28 8.81,-12.51 2.03,-24.37 -8.83,8.43 -21.43,34.06 -22.57,49.28l-14.23 -22.55c-0.38,-0.76 -1.09,-1.91 -1.38,-2.68 -6.04,-15.85 5.68,-34 7.66,-52.72 -17.85,13.68 -67.29,171.15 -86.08,216.43l-95.17 200.05z"/>
   <path class="fil0" d="M2297.24 1516.12c15.9,69.76 184.58,381.67 249.72,389.71 8.05,-17.56 18.22,-35.19 21.45,-53.63 -19.26,-25.83 -51.27,-47.4 -74.44,-91.48 -20.28,-18.51 -37.15,-58.7 -52.43,-80.93 -11.4,-22 -19.06,-41.06 -30.79,-63.9 -5.61,-10.92 -9.3,-17.74 -14.54,-30.43 -2.98,-7.22 -2.82,-8.47 -6.95,-15.8l-11.02 -14.86c2.33,20.5 5.39,7.57 -6.17,19.16l-47.67 -106.03 -8.6 19.04c-0.37,-0.78 -1.37,2.64 -2.35,3.75 -8.24,-16.83 0.83,-11.31 -14.62,-13.92 9.6,42.58 25.63,56.62 24.46,71.47 -1.11,14.23 3.35,0.69 -4.3,10.74 -1.69,-10.91 -1.89,-16.33 -6.39,-25.17 -12.08,-23.75 -2.9,-9.33 -15.36,-17.72z"/>
   <path class="fil0" d="M2585.58 825.41l-2.31 0.67c-7.42,11.33 -29.33,20.28 -40.8,31.5 -10.92,10.69 -6.22,11.27 -15.16,20.86 -6.09,6.52 -11.16,7.89 -21.53,15.4 -23.89,4.4 -173.49,188.58 -190.12,233.27l2.04 10.87c9.87,-14.75 11.48,-16.82 25.4,-25.18 13.22,9 8.97,9.36 15.92,14.51 10.35,7.67 9.56,7.96 24.83,5 29.13,-32.74 50.19,-73.58 80.9,-107.09 15.14,-16.51 29.38,-32.74 45.73,-49.71 10.57,-10.97 29.41,-38.45 51.3,-39.69 3.96,-13.34 1.14,-3.29 7.64,-11.02 0.6,-0.72 1.61,-1.7 2.24,-2.43 25.65,-29.44 7.79,-7.06 22.78,-18.67 -4.46,-8.34 -2.46,2.21 -4.08,-16.6 13.78,-8.6 22.97,-22.08 36.29,-29.58 -18.75,-20.37 -12.05,-25.75 -8.46,-33.33l-7.46 -0.96c-8.8,6.21 -10.73,8.7 -22.89,14.88 -6.79,-7.39 -15.54,14.08 -2.26,-12.7z"/>
   <path class="fil0" d="M1417.29 1360.91c-1.98,18.72 -13.7,36.87 -7.66,52.72 0.29,0.77 1,1.92 1.38,2.68l14.23 22.55c1.14,-15.22 13.74,-40.85 22.57,-49.28 6.78,11.86 3.55,10.09 -2.03,24.37 -4.92,12.59 -7.89,16.91 -7.25,33.84 10.71,-13.5 0.01,-6.54 10.98,-20.48 7.98,-10.15 -4.14,-0.77 8.59,-7.99 16.34,-27.2 37.25,-97.42 52.99,-135.57 9.49,-23.02 18.45,-46.09 28,-67.32 10.46,-23.26 22.54,-43.92 31.35,-66.55 -10.36,0.57 -4.54,2.45 -10.19,-1.67 3.81,-15.6 19.36,-42.71 28.02,-58.77 30.19,-55.97 16.31,-8.29 11.63,-43.2 -12.28,16.89 -20.67,12.73 -42.45,19.68 6.48,-23.71 -0.92,-7.12 12.78,-26.19 -25.06,19.51 -73.9,119.62 -88.06,151.74 -11.76,26.68 -65.98,147.02 -64.88,169.44z"/>
   <path class="fil0" d="M2585.58 825.41c-13.28,26.78 -4.53,5.31 2.26,12.7 12.16,-6.18 14.09,-8.67 22.89,-14.88 5.47,-8.25 0.36,-2.33 6.97,-8.13 20.91,-18.33 132.87,-72.41 155.66,-81.04 63.17,-23.9 130.8,-45.36 202.17,-55.41 13.43,17.01 16.73,12.98 39.63,24.26 1.3,0.64 2.53,1.3 3.72,1.91l-88.12 17.11c-20.23,2.99 -13.36,1.75 -28.87,7.2 -18.71,6.57 -94.12,26.51 -106.12,43.67l23.69 -6.09c17.17,2.01 162.94,-53.47 221.35,-40.56 3.98,78.54 -5.35,462.58 6.66,499.41l50.92 15.15 -6.79 -16.6 -34.34 -8.01 -1.83 -487.55c50.53,14.23 36.09,72.51 35.1,160.76 -0.42,37.35 0.02,167.12 7.65,193.68 -4.98,-36.35 3.93,-112.82 2.36,-157.34 -1.8,-51.23 0.14,-114.85 -3.82,-163.51l14.01 -4.56 -17.73 -19.68c-5.81,-5.07 -11.35,-9.43 -16.88,-14.41 -33.01,-29.73 -33.09,-33.05 -79.71,-47.43 -37.64,-11.61 -25.09,-16.07 -47.88,-21.09 3.97,15.06 3.05,5.25 -1.88,13.76 -79.62,20.77 -126.23,33.01 -197.73,63.25 -43.23,18.28 -138.19,64.96 -163.34,93.43z"/>
   <path class="fil0" d="M3491.65 1705.36l225.95 179.9c19.46,14.46 27.21,12.35 28.14,31.37 15.36,-29.45 -9.36,-78.76 -17.42,-108.77 -25.84,-22.32 -64.11,-46.35 -97.3,-72.38 -24.89,-19.52 -71.35,-61.79 -96.95,-76.75l-33.31 -16.81c-15.4,11.58 -28.03,44.02 -29.62,40.3 -0.31,-0.72 -1.52,1.61 -2.24,2.47 14.6,10.13 11.39,2.76 22.75,20.67z"/>
   <path class="fil0" d="M3214.18 2229.94l150.76 20.08 19.35 0.91 71.18 1.95c1.19,-13.8 1.8,-24.82 -0.17,-36.35 -3.9,-22.76 -0.9,-13.42 -11.88,-25.45 -46.19,-3.87 -88.66,-8.7 -134.11,-13.81 -32.78,-3.68 -102.54,-17.51 -130.03,-14.39l-93.99 -5.23c6.46,15.38 62.01,9.11 78.5,17.03 -23.08,13.33 -53.67,-7.49 -62.91,13.43 8.36,0.13 20.14,-0.29 28.01,0.18 23.11,1.39 15.94,-3.4 21.95,9.1 -14.79,7.95 -32.1,1.12 -50.48,8.37 14.44,6.64 33.64,5.21 54.14,8.93l59.68 15.25z"/>
   <path class="fil0" d="M3110.64 1552.1c-22.14,12.12 -46.07,18.11 -73.68,33.73 -39.45,16.56 -127.61,95.65 -135.91,127.46 8.1,12.97 -2.04,9.68 12.81,-2.36 26.25,-21.28 40.83,-50.31 105.46,-98.3 28.01,5.57 -18.51,2.7 17.89,7.09 20.62,2.49 2.26,-9.07 22,9.31 -21.51,8.99 -34.98,22.42 -50.86,35.07 -9.9,7.88 -15.32,12.54 -23.69,21.79 -7.76,8.57 -13.24,16.39 -21.83,22.81 11.58,14.34 -7.08,4.4 10.64,4.36 8.56,-4.27 35.13,-33.49 48.8,-44.06 14.26,-11.04 44.19,-30.13 58.73,-35.55l84.3 -29.09 74.55 -7.06 71.76 -12.23 -0.62 -19.01c-6.6,-4.65 -0.49,-1.63 -10.99,-4.31 -6.1,-1.56 -6.62,-0.92 -12.29,-1.83 -36.82,-5.91 -25.99,-18.07 -62.51,-23.06 -39.19,-4.92 -79.84,8.21 -114.56,15.24z"/>
   <path class="fil0" d="M2610.73 823.23l7.46 0.96c-3.59,7.58 -10.29,12.96 8.46,33.33 -13.32,7.5 -22.51,20.98 -36.29,29.58 1.62,18.81 -0.38,8.26 4.08,16.6 15.09,-0.36 -3,-1.39 19.39,3.76l-5.42 -20.6c28.65,-17.73 61.28,-42.46 99.31,-63.72l111.74 -56.43 -23.69 6.09c12,-17.16 87.41,-37.1 106.12,-43.67 15.51,-5.45 8.64,-4.21 28.87,-7.2l88.12 -17.11c-1.19,-0.61 -2.42,-1.27 -3.72,-1.91 -22.9,-11.28 -26.2,-7.25 -39.63,-24.26 -71.37,10.05 -139,31.51 -202.17,55.41 -22.79,8.63 -134.75,62.71 -155.66,81.04 -6.61,5.8 -1.5,-0.12 -6.97,8.13z"/>
   <path class="fil0" d="M1193.44 1307.9l-32.9 89.95c-4.14,9.27 -7.12,10.33 -9.91,16.88 -3.98,9.37 -0.39,-3.04 -3.2,10.77 -3.04,14.96 -6.03,52.38 0.93,68.24 12.58,-2.72 5.99,-1.07 14.42,-8.46l17.14 -20.12c30.64,-48.3 8.55,-1.09 39.58,-71.15 11.53,-26.03 13.71,-18.64 13.76,-18.69 16.93,-36.86 30.57,-68.94 46.21,-105.18 8,-18.53 14.24,-33.27 23.9,-52.93 8.98,-18.3 17.81,-33.16 23.57,-57.3 -18.09,9.28 -9.92,13.73 -23.87,34.79 -30.47,46.04 -11.31,23.23 -26.62,50.61 -14.93,26.69 -5.24,-7.43 -19.77,19.87 -2.88,5.39 -4.71,10.63 -11.95,12.21l-24.34 -6.75c-2.73,8.44 -13.38,39.92 -22.4,42.39 8.07,-4.69 49.9,-126.43 58.97,-143.66 8.76,-16.64 17.54,-26.41 18.24,-52.06 -8.25,6.55 -3.74,2.29 -10.09,11.14 -9.27,12.93 -71.65,165.29 -71.67,179.45z"/>
   <path class="fil0" d="M2594.44 903.7c-14.99,11.61 2.87,-10.77 -22.78,18.67 -0.63,0.73 -1.64,1.71 -2.24,2.43 -6.5,7.73 -3.68,-2.32 -7.64,11.02 7.13,35.19 109.38,160.04 135.1,170.83l48.79 -31.12c-4.67,-15.2 -55.16,-62.11 -70.85,-82.63 -12.98,-16.99 -21.51,-26.42 -33.49,-43.65 -8.71,-12.54 -20.83,-35.25 -27.5,-41.79 -22.39,-5.15 -4.3,-4.12 -19.39,-3.76z"/>
   <path class="fil0" d="M2456.1 467.14c23.5,12.5 65.5,24.75 91.16,34.81 32.14,12.61 69.09,30.73 104.14,38.75 -1.7,-17.69 3.39,-1.76 16.04,-21.88l5.01 -12.13c1.1,-9.4 0.31,-6.37 -4.03,-15.69l18.87 0.79c-12.78,-13.7 -109.67,-45.76 -135.62,-55.88 -22.39,-8.74 -30.55,-14.65 -52.02,-16.19 -20.92,2.23 -13.94,-1.32 -30.73,-5.58 11.13,9.09 10.78,8.54 24.56,15.12l-17.4 10.41c3.53,7.51 5.31,15.51 8.64,24.97l-28.6 -6.39c-3.21,4.28 -7.83,-7.27 -0.02,8.89z"/>
   <path class="fil0" d="M2466.75 1649.55c2.76,26.69 -0.42,7.05 6.08,18.64 0.33,0.59 10.43,11.37 10.49,11.41l25.02 17.16c1.92,-5.38 0.35,-4.48 3.74,-10.16 6.2,-10.39 2.27,-5.66 10.16,-12.53 11.51,-29.43 32.68,-69.84 40.22,-105.22 -12.33,7.79 -16.73,16.56 -20.04,33.98 -2.77,-9.6 1.04,-14.83 4.78,-23.07l41.28 -113.99c-15.01,5.07 -7.01,6.08 -17.74,21.98l-14.7 -28.19 -33.78 73.45c-0.39,0.93 -0.93,2.11 -1.33,3.03l-20.89 48.09c-2.16,4.51 -7.65,13.77 -10.69,22.39 -6.24,17.69 -3.79,9.93 -1.46,14.07 0.86,-20.3 -2.32,4.55 6.65,-22.38l3.21 -10.17c0.34,-1.04 0.73,-2.24 1.07,-3.27 0.35,-1.03 0.75,-2.21 1.11,-3.25 0.35,-1.05 0.78,-2.22 1.14,-3.28 0.38,-1.11 0.82,-2.27 1.2,-3.39l4.77 -14.5c10.66,-34.23 35.78,-80.99 34.01,-100.41 -13.39,11.89 -74.86,172.38 -74.3,189.61z"/>
   <path class="fil0" d="M2059.25 1042.58c-5.87,-24.93 -2.69,-3.13 6.24,-12.44 4.94,8.15 5.47,6.21 6.61,9.06 -4.12,-16.52 -5.59,-3.66 5.36,-12.21 6.77,-5.28 13.61,-4.99 16.88,-5.96 -5.6,-11.19 -55.44,-53.53 -62.28,-56.82 11.55,-11.75 -4.46,-9.3 15.19,-4.48 -28.58,-37.59 -116.07,-44.91 -163.53,2.26 10.83,15.7 19.89,25.96 31.91,43.7 29.87,-5.36 43.49,-23.93 83.84,-4.8 28.28,13.4 37.06,30.39 59.78,41.69z"/>
   <path class="fil0" d="M2931.15 1457.16c8.62,19.2 36.6,43.87 53.2,61.97l42.38 43.94c13.08,13.93 9.34,6.27 10.23,22.76 27.61,-15.62 51.54,-21.61 73.68,-33.73 -16.9,-4.48 -36.94,-36.23 -50.35,-49.78 -11.26,-11.37 -36.68,-42.57 -49.74,-45.29 -68.02,-36.67 -25.18,-14.22 -79.33,-10.32l-0.07 10.45z"/>
   <path class="fil0" d="M2195.47 1318.3c-16.41,39.02 -14.93,24.74 -24.49,43.58l-24.54 48.54c-27.5,55.49 -2.9,92.73 15.32,98.5 22.55,7.14 24.8,-10.66 36.91,-37.88 8.37,-18.8 17.59,-30.94 24.7,-46.61 17.1,-37.72 -16.34,-74.69 -27.9,-106.13z"/>
   <path class="fil0" d="M2724.11 2254.82c54.65,-5.68 103.04,-25.11 162.86,-35.12 52.9,-8.85 140.74,-4.28 198.35,-3.1 -40.74,-16.81 -112.72,1.62 -136.68,-12.96l36.65 -8.62c-18.6,-5.7 -2.04,-0.23 -13.54,-13.43l12.9 -9.66c15.23,-10.34 -1.87,6.34 5.15,-2.27l-38.41 -11.45c1.23,-0.89 2.81,-2.01 3.93,-2.81l7.54 -5.38 -48.01 4.69c-3.23,-6.01 -14.55,9.12 0.17,-13.39 -30.86,19.05 -54.75,38.34 -91.96,59.83 -16.79,9.7 -32.67,18.04 -49.47,27.21 -16.91,9.24 -33.3,14.98 -49.48,26.46z"/>
   <path class="fil0" d="M3081 1633.45l16.9 -0.09c6.82,19.32 37.82,48.19 50.87,62.14 11.85,12.66 41.05,51.48 55.59,57.8l-3.68 16.99c14.5,-11.86 39.65,-51.95 48.41,-67.48 -22.06,-5.68 -40.2,-44.76 -68.23,-71.02 -13.67,-12.81 -19.32,-10.53 -15.56,-27.43l-84.3 29.09z"/>
   <path class="fil0" d="M894.08 1163.47l-4.46 10.19c-2.59,11.7 12.32,17.98 -12.8,29.72 -25.74,12.04 -12.31,23.97 -5.17,24.55 17.18,1.39 9.56,-1.65 18.33,-2.51 19.11,-1.88 -8.48,12.21 24.96,-0.87 18.55,-7.26 34.29,-22.58 53.2,-27.42 10.77,-3.46 17.04,-8.06 27.77,-14.61 11.37,-6.96 19.93,-11.97 26.06,-22.51l-17.9 3.84c12.66,-7.21 15.54,-7.71 22.27,-20.19 -5.07,-10.93 -0.07,-3.54 -9.24,-9.99 -2.67,-1.88 -8.61,-3.73 -12.52,-5.15 13.76,-21.39 -5.68,-11.72 15.21,-35.37 5.92,-6.7 5.43,-3.9 10.14,-13.76 -16.78,5.65 -53.01,32.66 -69.76,44.4 -19.05,13.36 -49.69,31.5 -66.09,39.68z"/>
   <path class="fil0" d="M2392.53 2009.09c12.45,-15.3 30.72,-73.33 39.19,-95.17 12.85,-33.15 14.28,-65.43 -24.13,-86.87 -2.78,-1.55 -0.52,-1.81 -13.47,-5.64 -20.63,69.69 -60.48,110.95 -31.75,152.04 5.44,7.78 20.92,31.62 30.16,35.64z"/>
   <path class="fil0" d="M1701.73 784.87c6.83,10.25 1.7,3.4 8.1,9.92l102.21 67.5c23.26,5.63 24.69,16.85 46.74,12.58 27.12,-5.27 19.38,-14.61 26.42,-37.08l-14.95 -15.9 -127.44 -80.47c6.27,14.25 -0.84,0.94 6.52,10.31 13.37,17.02 15.67,-1.68 11.13,22.17l-3.47 20.86 -55.26 -9.89z"/>
   <path class="fil0" d="M3085.32 2216.6l128.86 13.34 -59.68 -15.25c-20.5,-3.72 -39.7,-2.29 -54.14,-8.93 18.38,-7.25 35.69,-0.42 50.48,-8.37 -6.01,-12.5 1.16,-7.71 -21.95,-9.1 -7.87,-0.47 -19.65,-0.05 -28.01,-0.18 9.24,-20.92 39.83,-0.1 62.91,-13.43 -16.49,-7.92 -72.04,-1.65 -78.5,-17.03l93.99 5.23 -216.42 -12.86 -7.54 5.38c-1.12,0.8 -2.7,1.92 -3.93,2.81l38.41 11.45c-7.02,8.61 10.08,-8.07 -5.15,2.27l-12.9 9.66c11.5,13.2 -5.06,7.73 13.54,13.43l-36.65 8.62c23.96,14.58 95.94,-3.85 136.68,12.96z"/>
   <path class="fil0" d="M968.14 1197.13c-18.91,4.84 -34.65,20.16 -53.2,27.42 -33.44,13.08 -5.85,-1.01 -24.96,0.87 -8.77,0.86 -1.15,3.9 -18.33,2.51 -7.14,-0.58 -20.57,-12.51 5.17,-24.55 25.12,-11.74 10.21,-18.02 12.8,-29.72l4.46 -10.19c-31.47,10.91 -117.77,65.84 -146.83,83.59l10.26 10.1c56.67,43.73 98.83,6.27 160.25,-25.47 17.38,-8.98 40.41,-17.75 50.38,-34.56z"/>
   <path class="fil0" d="M2901.05 1713.29c-12.79,9.08 -39.58,45.47 -42.74,57.62 -2.86,20.12 -1.19,3.53 3.45,10.59 2.43,-5.69 14.39,-25.15 18,-30.35 14.24,0.57 28.85,7.15 39.27,19.3 -4.44,13.33 -10.6,22.53 -18.02,31.79 -9.22,-5.57 -3.06,-0.57 5.41,-2.29l16.68 -16.57c15.09,-20.42 44.38,-55.26 50.37,-70.32 -17.72,0.04 0.94,9.98 -10.64,-4.36 8.59,-6.42 14.07,-14.24 21.83,-22.81 8.37,-9.25 13.79,-13.91 23.69,-21.79 15.88,-12.65 29.35,-26.08 50.86,-35.07 -19.74,-18.38 -1.38,-6.82 -22,-9.31 -36.4,-4.39 10.12,-1.52 -17.89,-7.09 -64.63,47.99 -79.21,77.02 -105.46,98.3 -14.85,12.04 -4.71,15.33 -12.81,2.36z"/>
   <path class="fil0" d="M2780.33 1855.43c-35.25,15.05 -52.18,55.33 -56.9,97.62 28.62,-4.04 51.78,-16.68 72.96,-32.96 24.66,-18.95 39.83,-27.64 55.09,-54.24 -10.05,2.03 -4.89,2.85 -9.29,-0.02 10.64,-11.42 36.79,-42.59 39.68,-57.86l-21.52 17.24 -25.94 -12.77c-13.34,17.9 -31.46,30.29 -47.9,49.31l-6.18 -6.32z"/>
   <path class="fil0" d="M2330.64 2253.05c-2.6,28.78 17.25,68.48 25.93,88.75l35.94 -11.16c17.4,-12.74 38.47,-10.77 51.99,-27.13 -34.32,17.22 -26.58,12.77 -35.5,-17.93 -6.5,-22.38 -7.84,-39.44 -15.71,-56.42 -1.16,-0.98 -2.43,-2.28 -3.34,-3.1 -32.39,-29.17 -25.17,-20.23 -60.37,-15.74l1.06 42.73z"/>
   <path class="fil0" d="M1233.26 1375.32c-0.05,0.05 -2.23,-7.34 -13.76,18.69 -31.03,70.06 -8.94,22.85 -39.58,71.15l-17.14 20.12c-8.43,7.39 -1.84,5.74 -14.42,8.46 -6.96,-15.86 -3.97,-53.28 -0.93,-68.24 2.81,-13.81 -0.78,-1.4 3.2,-10.77 2.79,-6.55 5.77,-7.61 9.91,-16.88l32.9 -89.95c-16.68,13.24 -55.73,112.11 -65.9,133.11 -6.29,13.02 -26.07,53.53 -22.63,69.05 1.55,7 32.78,48.21 38.6,53.86 13.83,-19.04 87.99,-160.34 89.75,-188.6z"/>
   <path class="fil0" d="M1570.23 1039.73c-13.7,19.07 -6.3,2.48 -12.78,26.19 21.78,-6.95 30.17,-2.79 42.45,-19.68 4.68,34.91 18.56,-12.77 -11.63,43.2 -8.66,16.06 -24.21,43.17 -28.02,58.77 5.65,4.12 -0.17,2.24 10.19,1.67 16.29,-21.73 27.84,-50.63 46.9,-77.33 10.36,-14.52 17.75,-24.1 29.11,-34.45 15.76,-14.36 23.79,-17.39 32.93,-32.83l-17.35 4.71c-0.93,-1.9 -2.29,-4.59 -2.61,-3.79 -0.31,0.77 -1.84,-2.26 -2.23,-2.84 -6.76,-10.26 -10.1,-3.54 -3.21,-16.88 12.14,-23.52 10.59,4.78 17.1,-25.05 -15.33,2.09 -18.25,5.19 -27.96,11.34 -10.78,-8.91 -4.37,5.67 -2.89,-11.78 -15.59,8.6 -63.33,55.37 -70,78.75z"/>
   <path class="fil0" d="M2315.66 1127.11c-7.5,6.05 -1.73,0.63 -8.1,8.32 -41.76,50.53 -24.27,69.86 -5.87,118.92 13.17,-3.52 77.76,-109.97 82.16,-122.04 -15.27,2.96 -14.48,2.67 -24.83,-5 -6.95,-5.15 -2.7,-5.51 -15.92,-14.51 -13.92,8.36 -15.53,10.43 -25.4,25.18l-2.04 -10.87z"/>
   <path class="fil0" d="M3350.92 2272.49c-12.57,0.37 -21.34,7.83 -32.93,13.73 -5.78,2.94 -14.93,6.95 -18.11,8.87 -18.41,11.17 -8.54,3.81 -17.37,15.82l13.85 -4.37c12.96,17.89 6.54,-1.83 28.39,7.96 7.88,3.54 18.26,1.91 6.87,22.15 -3.4,6.05 -5.16,6.32 -6.95,9.01 7.3,-2 14.19,-4.12 21.07,0.69 -23.14,3.91 -4.88,0.16 -13.01,9.24 18.19,-4.34 37.25,-16.09 48.65,-25.33l23.19 -24.43c7.16,-11.42 4.72,-18.43 0.09,-31.23 -22.63,-10.1 -31.48,-11.36 -53.74,-2.11z"/>
   <path class="fil0" d="M2427.77 474.03c-3.89,-28.41 -2.95,-7.21 5.64,-14.8l22.69 7.91c-7.81,-16.16 -3.19,-4.61 0.02,-8.89l28.6 6.39c-3.33,-9.46 -5.11,-17.46 -8.64,-24.97l17.4 -10.41c-13.78,-6.58 -13.43,-6.03 -24.56,-15.12 16.79,4.26 9.81,7.81 30.73,5.58 -12.97,-13.93 -105.66,-43.28 -131.01,-48.5 9.79,15.73 19.24,20.74 32.86,45.7 5.71,10.47 10.49,19.33 14.15,27.26 5.42,11.74 7.33,20.92 12.12,29.85z"/>
   <path class="fil0" d="M3491.65 1705.36c-11.36,-17.91 -8.15,-10.54 -22.75,-20.67 0.72,-0.86 1.93,-3.19 2.24,-2.47 1.59,3.72 14.22,-28.72 29.62,-40.3l33.31 16.81c-0.84,-1.02 -2.2,-3.77 -2.67,-2.93l-5.29 -5.52c-16.99,-16.28 -69.19,-57.28 -88.94,-59.14 -6.82,10.57 -23.79,35.91 -26.04,47.59 8.45,21.54 56.68,56.16 80.52,66.63z"/>
   <path class="fil0" d="M2142.78 2127.75c15.46,11.79 46.25,18.11 68.25,12.99 35.8,-8.32 10.89,-28.46 20.02,-54.11 -20.09,-0.54 -42.88,-2.99 -60.91,-12.21l-15.2 -10.44 -40.23 -22.94c0.55,1.33 1.61,2.83 2.06,3.79 16.52,35.45 -14.53,16.08 11.52,31.46l23.98 13.55c0.51,0.32 1.57,1.03 2.05,1.36l8.2 14.9c-13.86,11.82 -5.44,10.43 -19.74,21.65z"/>
   <path class="fil0" d="M2800.53 1320.16l-0.66 -18.54c13.6,-4.8 9.97,-6.01 18.58,-18.08l43.15 6.96c-9.1,-16.84 -61.44,-72.06 -64.84,-72.94 -21.13,-0.03 -42.63,19.72 -49.32,35.11l53.09 67.49z"/>
   <path class="fil0" d="M2858.31 1770.91c-14.16,9.46 -10.29,8.36 -20.95,21.99 -6.4,8.19 -11.61,14.31 -18.62,22.26 -12.57,14.24 -29.3,27.73 -38.41,40.27l6.18 6.32c16.44,-19.02 34.56,-31.41 47.9,-49.31l25.94 12.77 21.52 -17.24c-2.89,15.27 -29.04,46.44 -39.68,57.86 4.4,2.87 -0.76,2.05 9.29,0.02 10.6,-3.25 48.05,-49.43 54.94,-65.9 -8.47,1.72 -14.63,-3.28 -5.41,2.29 7.42,-9.26 13.58,-18.46 18.02,-31.79 -10.42,-12.15 -25.03,-18.73 -39.27,-19.3 -3.61,5.2 -15.57,24.66 -18,30.35 -4.64,-7.06 -6.31,9.53 -3.45,-10.59z"/>
   <path class="fil0" d="M2800.53 1320.16c8.09,9.79 12.31,15.71 23.56,27.62 6.9,7.31 21.08,19.38 25.89,28.33l25.85 -26.2c9.79,-9.77 18.74,-16.46 26.11,-24.87 -13.08,-2.02 -7.01,-0.46 -15.53,-7.59 -2.11,-1.76 -6.39,-7.31 -8.54,-9.84 -4.69,-5.5 -10.86,-12.48 -16.27,-17.11l-43.15 -6.96c-8.61,12.07 -4.98,13.28 -18.58,18.08l0.66 18.54z"/>
   <path class="fil0" d="M2142.78 2127.75l-13.63 -3.01c7.73,13.31 -5.52,2.38 13.69,13.42 34.95,20.09 100.64,16.91 143.02,-8.9 -0.83,-21.3 -22.15,-50.09 -39.3,-53.23 -13.63,-2.49 -32.09,1.65 -49.04,-0.86 -15.05,-2.23 -24.11,-7.56 -42.58,-11.19l15.2 10.44c18.03,9.22 40.82,11.67 60.91,12.21 -9.13,25.65 15.78,45.79 -20.02,54.11 -22,5.12 -52.79,-1.2 -68.25,-12.99z"/>
   <path class="fil0" d="M3245.51 1820.92c11.34,0.54 8.64,-0.2 20.76,10.16l0.79 -14.37c9.24,8.3 22.86,26.25 34.59,30.12 24.59,8.11 -2.12,-0.51 18.51,-0.85 13.21,-0.22 5.16,1.9 21.21,6.62 -5.88,-12.67 -7.86,-11.11 -5.23,-20.42l3.11 -5.54c-26.57,-42.75 -50.72,-48.74 -51.75,-65.89 -12.32,10.71 -34.24,46.2 -41.99,60.17z"/>
   <path class="fil0" d="M2806.96 2576.63l-14.74 5.18c-11.4,-9.1 -28.68,-9.5 -33.45,-41.28 -1.61,-10.76 -2.51,10.56 -0.07,-8.08 -20.93,6.49 -34.76,25.66 -47.35,41.92 4.01,22.33 16.07,42.43 43.94,39.37 12.02,-1.33 34.58,-19.31 43.79,-28.34 6.15,-6.02 2.61,-1.96 7.88,-8.77z"/>
   <path class="fil0" d="M2894.52 1425.75c17.69,6.33 2.91,-1.35 17.48,15.89 10.13,11.99 5.64,8.57 19.15,15.52l0.07 -10.45c54.15,-3.9 11.31,-26.35 79.33,10.32 -6.84,-13.88 -6.95,-13.17 -17.56,-23.91l-36.35 -36.1c-15.99,-14.75 -12.09,-4.02 -14.09,-22.82l-45.9 48.16c-0.38,-0.78 -1.44,2.25 -2.13,3.39z"/>
   <path class="fil0" d="M2489.77 811.62c7.3,14.79 11.11,24.26 19.55,38.85 14.96,25.86 9.43,17.65 -3.54,43.37 10.37,-7.51 15.44,-8.88 21.53,-15.4 8.94,-9.59 4.24,-10.17 15.16,-20.86 11.47,-11.22 33.38,-20.17 40.8,-31.5 -30.36,-3.46 -5.2,-0.31 -31.51,-42.07 -0.5,-0.79 -2,-1.29 -2.38,-3.2 -0.39,-1.96 -1.65,-2.19 -2.51,-3.25l-0.48 16.55c-18.44,4.33 -5.43,1.81 -31.36,26.25l-25.26 -8.74z"/>
   <path class="fil0" d="M2441.54 1679.79c15.28,22.23 32.15,62.42 52.43,80.93 -0.34,-13.48 8.38,-24.22 14.65,-41.44 6.43,-17.65 10.92,-25.06 13.62,-45.21 -7.89,6.87 -3.96,2.14 -10.16,12.53 -3.39,5.68 -1.82,4.78 -3.74,10.16l-25.02 -17.16c-0.06,-0.04 -10.16,-10.82 -10.49,-11.41 -6.5,-11.59 -3.32,8.05 -6.08,-18.64 -22.85,17.87 -1.84,32.65 -25.21,30.24z"/>
   <path class="fil0" d="M3350.92 2272.49c22.26,-9.25 31.11,-7.99 53.74,2.11 4.63,12.8 7.07,19.81 -0.09,31.23l-23.19 24.43c25.8,-10.17 48.67,-28.68 64.68,-46.12 -4.27,-17.76 -1.51,-5.68 -6.31,-12.22l-9.07 -10.28 25.07 -0.34 -3.42 64.75c14.47,-14.04 11.35,-49.39 7.79,-69.74l-75.83 -5.38 -19.35 -0.91c5.54,6.9 -4.95,1.87 8.18,9.02 -5.49,1.82 -5.27,0.7 -10.62,3.86 -13.27,7.82 -4.75,1.53 -11.58,9.59z"/>
   <path class="fil0" d="M1812.04 862.29c8.49,10.8 44.73,35 58.42,35.72 9.87,0.51 52.57,-19.31 60.01,-26.86 -7.34,-20.67 -38.45,-39.19 -60.22,-49.26l14.95 15.9c-7.04,22.47 0.7,31.81 -26.42,37.08 -22.05,4.27 -23.48,-6.95 -46.74,-12.58z"/>
   <path class="fil0" d="M2330.64 2253.05l-1.06 -42.73c35.2,-4.49 27.98,-13.43 60.37,15.74 0.91,0.82 2.18,2.12 3.34,3.1 -1.42,-21.73 -3.01,-46.7 -17.41,-55.65 -8.84,-5.49 -39.96,-11.37 -54.61,-11.1l9.37 90.64z"/>
   <path class="fil0" d="M1831.99 1989.62c9.02,-6.05 2.29,-0.37 8.89,-7.79l14.86 -25.92c27.2,4.91 20.49,4.88 36.87,19l-1.38 33.99c35.71,-42.15 17.25,-84.92 -11.93,-95.96 -14.32,8.88 -5.64,0.63 -15.01,15.11 -3.06,4.75 -8.64,15.71 -11.34,20.5 -6.42,11.43 -13.96,26.3 -20.96,41.07z"/>
  </g>
 </g>
</svg>
