<?xml version="1.0" encoding="UTF-8"?>
<!DOCTYPE svg PUBLIC "-//W3C//DTD SVG 1.1//EN" "http://www.w3.org/Graphics/SVG/1.1/DTD/svg11.dtd">
<!-- Creator: CorelDRAW -->
<svg xmlns="http://www.w3.org/2000/svg" xml:space="preserve" width="600" height="500" version="1.1" style="shape-rendering:geometricPrecision; text-rendering:geometricPrecision; image-rendering:optimizeQuality; fill-rule:evenodd; clip-rule:evenodd"
viewBox="-5177 -6254 42168 28092"
 xmlns:xlink="http://www.w3.org/1999/xlink"
 xmlns:xodm="http://www.corel.com/coreldraw/odm/2003">
 <defs>
  <linearGradient id="brainGrad" x1="0%" y1="0%" x2="100%" y2="100%">
   <stop offset="0%" style="stop-color:#0066FF;stop-opacity:1" />
   <stop offset="50%" style="stop-color:#00AACC;stop-opacity:1" />
   <stop offset="100%" style="stop-color:#00DD88;stop-opacity:1" />
  </linearGradient>
  <style type="text/css">
   <![CDATA[
    .fil0 {fill:url(#brainGrad)}
   ]]>
  </style>
 </defs>
 <g id="Warstwa_x0020_1">
  <metadata id="CorelCorpID_0Corel-Layer"/>
  <path class="fil0" d="M18855.9 7779.9c-11.47,135.52 -61.25,22.26 22.43,91.52 75.47,-47.79 98.15,-71.9 217.18,-88.11 -50.56,231.74 -38.52,11.87 -132.83,194.54 -53.52,103.66 -27.58,51.42 24.95,131.13 3,4.55 14.95,28.09 17.35,22.09 2.49,-6.25 13,14.64 20.23,29.41l134.79 -36.6c289.33,-25.88 409.64,-325.45 970.63,316.62 1077.31,1233.02 2453.87,5508.09 3437.78,7181.68 339.75,577.89 848.43,1348.84 1602.75,1386.35 411.19,20.45 773.4,-284.9 973.68,-507.6 111.17,-123.62 206.63,-284.05 308.17,-433.14 120.62,-177.12 167.57,-314.49 262.59,-513.85 170.66,-358.06 297.17,-683.79 447.82,-1068.16 341.49,-871.26 916.25,-2503.73 1434.72,-3095.94 5.42,-8.86 13.66,-32.38 16.61,-26.36l356.45 -374.02c541.81,-431.39 918.08,-261.31 1317.12,134.33 241.16,239.1 806.95,962.81 942.61,1033.87 -55.05,105.26 31.9,4.2 -64.31,95.19 283.64,38.75 199.57,133.23 485.49,179.1 44.06,7.07 48.09,2.12 95.5,14.22 81.52,20.83 34.11,-2.64 85.35,33.49l4.84 147.64 -557.38 95.03 559.22 -49.13c-86.24,278.04 -357.16,548.16 -487.48,868.64 -68.06,120.63 -263.35,431.96 -376,524.11 -249.78,416.59 -829.07,1034.54 -1137.83,1365.65 -361.5,387.67 -905.85,790.52 -1372.65,1130.52 -495.59,360.96 -1015,625.34 -1592.48,907.83 -250.9,122.74 -1575.94,728.13 -1770.4,737.62 -105.05,127.03 -268.68,111.74 -403.82,210.67l-104.93 98.08c-66.5,47.84 -44.36,26.46 -108.42,58.64 -9.39,4.72 -37.57,18.26 -47.08,23.2l-115.72 61.33c-7.31,3.42 -16.64,7.35 -24.03,10.67l-454.02 179.6c-57.69,17.8 -113.32,26.22 -189.82,31.37 45.72,35.57 27.49,38.88 112.4,64.68 124.22,37.73 60.19,8.01 135.49,-0.08 211.51,-22.73 133.94,8.26 304.08,23.8l-96.72 48.31c-6.41,3.62 -15.92,8.73 -22.38,12.6l-169.69 103.84c-287.32,131.06 -910.41,323.54 -1032.55,486.99 178.29,-47.79 150.93,-83.46 332.25,-99.8 143.72,-5.09 1732.38,-691.14 2047.02,-830.61 363.98,-161.34 669.09,-269.89 1022.65,-427.04 323.54,-143.81 656.49,-299.03 987.1,-434.46 125.67,-89.15 252.95,-133.78 384.28,-205.49 130.46,-71.23 253.86,-136.07 384.26,-211.4 288.98,-166.92 474.58,-316.75 714.28,-464.67 241.41,-101.8 1173.66,-913.74 1392.37,-1134.42 229.85,-231.92 399.14,-407.78 613.51,-656.12 161.69,-187.33 414.52,-475.86 561.06,-698.05 60.17,-108.53 230.42,-384.16 326.13,-467.4 137.8,-283.53 370.69,-590.27 551.12,-927.56 235.88,-440.98 1504.07,-2684.99 1564.06,-2955.09 94.61,5.42 61.65,-3.33 121.69,27.03 -18.68,-109.87 -68.43,-210.58 -94.24,-334.3 -57.24,-274.45 -167.45,-415.87 -403.29,-613.14l-96.65 -68.37c-4.85,-14.22 -18.8,-11.31 -28.47,-16.47 -365.44,-38.64 -1465.68,-260.7 -1748.18,-222.98l-260.61 56.36c-1.9,4.92 -5.67,15.69 -8.44,20.49 -94.37,163.78 -48.59,-90.77 -198.51,240.87 -82.36,23.53 -114.77,53.5 -184.23,4.03 74.59,39.02 223.81,56.7 332.76,69.09 133.13,15.15 247.07,23.87 345.36,97.98 315.73,49.82 629.99,83.29 944.33,127.88 214.04,30.36 794.02,69.22 947.36,159.81 -41.62,224.4 -732.51,1480.94 -913.23,1823.67 -105.26,199.63 -221.05,361.55 -303.67,582.03 -959.49,4.25 -1465.28,-1714.9 -2509.9,-1797.76 -548.55,-43.51 -700.47,125.35 -1051.97,342.26 -57.26,65.3 -126.78,117.24 -202.76,193.14l-200.81 203.54c-33.93,98.19 -208.67,335.1 -292.02,467.8 -263.76,419.93 -562.93,1092.83 -735.31,1523.71 -297.18,742.85 -545.03,1422.73 -852.15,2143.19 -223.49,524.3 -760.91,1741.75 -1562.42,1252.1 -452.19,-276.24 -922.93,-1138.4 -1223.73,-1777.5 -659.68,-1401.58 -1185.62,-2848.66 -1818.17,-4214.34 -353.67,-763.56 -1044.9,-2315.37 -1819,-2730.54 -378.39,-202.95 -847.36,-143.4 -1093.52,111.16z"/>
  <path class="fil0" d="M16140.42 14343.14c-130.42,61.75 -125.47,118.26 -228.07,217.25 28.25,-155.46 57.61,-88.27 100.24,-242.05 -231.93,182.12 -266.96,164.71 -206.62,-145.34l-46.64 11.26c-55.32,-31.35 -19.62,80.87 -42.84,-63.21 -203.17,162.6 -374.07,619.04 -874.7,841.09 -479.4,212.64 -1030.1,-286.53 -1095.69,-436.37 43.51,-90.11 113.08,-142.63 187.63,-256.14 238.31,-362.85 285.09,-337.99 184.09,-586.26 -191.77,-471.43 -369.8,-20.86 -435.55,31.19 -22.81,113 -35.94,129.76 -84.18,191.69 -213.84,274.57 -1133.37,1151.14 -1398.47,1419.09 -126.05,127.42 -404.01,446.39 -592.07,475.33 -126.64,-307.83 -245.87,-629.52 -359.39,-946.81l-341.59 -966.52c-123.68,-299.3 -654.26,-1732.47 -666.15,-1966.53 742.42,-8.89 1186.86,445.06 1554.98,832.4 400.43,421.33 724.99,910 1015.15,1400.49 57.71,-39.75 81.62,-68.19 135.67,-125.06l109.24 -110.05c46.9,-39.45 14.26,-16.96 72.35,-53.75 -48.1,-352.95 -758.51,-1270.58 -981.98,-1496.06 -1049.37,-1058.83 -1369.96,-668.44 -1631.92,-876.9 106.55,-266.13 853.61,-523.53 1078.14,-658.21 190.43,-114.22 186.49,-135.42 485.65,-87.73 -151.83,-51.52 -368.95,-96.1 -537.01,-96.97 -104.55,-0.53 -216.31,7.73 -321.08,13.23 -158.07,8.31 -215.62,50.12 -226.59,-58.3 -88.31,41.76 -21.93,3.45 -102.24,61.61 -93.23,67.52 -86.14,100.82 -188.85,146.15 9.15,-145.8 66.81,-221.1 118.07,-331.39l306.68 -601.7c330.3,-648.67 344.64,-878.53 875.7,-1309.33 357.24,-289.79 665.36,-519.91 1000.46,-801.09 134.16,-112.56 891.84,-735.73 954.45,-834l-148.83 49.43c-133.41,0.63 -1.12,-39.5 -200.04,38.52 0.57,-268.96 -22.85,-126.47 -173.88,-181.83 93.93,-251.31 96.37,5.01 142.7,-241.87l-1393.97 1124.1c-389.72,318.04 -970.58,809.78 -1222.85,1280l-1258.76 2494.24c-115.83,420.79 88.77,757.65 188.18,1072.11 192.63,609.34 477.38,1231.71 665.45,1839.07l510.3 1360.46c64.81,167.66 68.4,346.09 154.96,487.72 128.15,209.7 1542.12,675.96 1784.93,734.68 412.57,99.78 1971.09,705.75 2053.39,283.1l-12.5 -399.03c-274.63,-86.64 -713.79,-15.04 -1466.29,-290.2 -381.09,-139.35 -822.7,-171.14 -1384.42,-422.75 28.03,-139.7 20,-107.45 107.45,-203.65l443.72 -404.47c642.46,-551.27 441.33,-734.74 954.07,-331.93 391.32,307.43 791.45,404.4 1306.07,256.45 337.24,-96.95 1008.36,-789.29 1133.45,-1135.16z"/>
  <path class="fil0" d="M23217.84 19521.47c-181.32,16.34 -153.96,52.01 -332.25,99.8 122.14,-163.45 745.23,-355.93 1032.55,-486.99l169.69 -103.84c6.46,-3.87 15.97,-8.98 22.38,-12.6l96.72 -48.31c-170.14,-15.54 -92.57,-46.53 -304.08,-23.8 -75.3,8.09 -11.27,37.81 -135.49,0.08 -84.91,-25.8 -66.68,-29.11 -112.4,-64.68 76.5,-5.15 132.13,-13.57 189.82,-31.37l454.02 -179.6c7.39,-3.32 16.72,-7.25 24.03,-10.67l115.72 -61.33c9.51,-4.94 37.69,-18.48 47.08,-23.2 64.06,-32.18 41.92,-10.8 108.42,-58.64l104.93 -98.08 -279.13 86.73c-247.95,130.11 -584.36,258.37 -868.32,380.09 -303.96,130.29 -585.87,231.96 -897.65,373.43 -87.02,40.09 -187.99,56.81 -304.12,108.17 -136.25,60.26 -193.52,101.28 -337.05,141.79 -276.16,139.75 -674.04,293.41 -985.43,412.87 -182.2,69.9 -314.94,132.89 -490.52,207.04 -142.69,60.27 -346.28,167.96 -523.95,223.21 -81.63,34.85 -363.38,173.44 -441.31,190.9 -147.13,32.97 -386.49,-93.8 -479.73,-174.69l-1.32 -5.63c-162.26,-34.82 -1876.96,-896.39 -1985.8,-986.74l-57.74 -17.35c-131.63,-56.9 -228.02,-117.22 -347.71,-181.12 -164.09,-87.61 -164.03,-124.29 -212.76,-319.5l-442.85 -1684.09c151.54,-135.2 392.56,-183.86 714.87,-497.64 1084.95,-1056.25 1535.64,-2614.16 2091.27,-4018.21 116.94,-295.49 202.75,-580.89 311.17,-887.4 150.12,-424.39 155.73,-309.83 -9.82,-687.16l-131.64 -217.76 -93.82 178.82c-21.72,55.93 -54.01,141.52 -76.67,202.6 -57.67,155.45 -99.65,275.67 -152.32,414.69 -425.53,1123.34 -995.79,2965.86 -1656.46,3883.36 -241.49,335.37 -677.84,989.8 -1120.3,1092.86 -84.21,-298.93 -162.19,-828.83 -287.1,-1062.57 -134.88,24.47 -292.02,126.21 -390.76,220.83 7.35,329.47 583.89,2525.25 708.75,2973 248.72,892 88.6,631.65 1436.3,1306.59l1866.57 915.93c286.7,136.61 412.72,11.93 696.15,-100.29 275.51,-109.09 3159.29,-1253.72 3268.06,-1369.53z"/>
  <path class="fil0" d="M26709.82 4515.54c72.55,44.75 2206.88,879.9 2307.82,887.5 177.02,39.02 79.55,73.67 371.95,163.86 362.05,111.68 362.72,137.44 619.08,368.37 42.97,38.71 85.99,72.56 131.14,111.93l137.72 152.84 10.69 4.75c247.68,263.66 499.49,476.08 749.4,712.3 237.31,224.31 494.52,482.18 754.3,727.65 212.27,200.59 1426.45,1343.68 1472.8,1459.17 9.67,5.16 23.62,2.25 28.47,16.47l96.65 68.37c235.84,197.27 346.05,338.69 403.29,613.14 25.81,123.72 75.56,224.43 94.24,334.3 -3.21,163.93 777.02,2663.51 886.71,3065.07 60.79,222.53 229.01,929.15 285.76,1022.75 76.45,62.26 25.81,-7 78.66,102.55 0.19,0.4 30.23,104.37 30.67,105.86 68.31,233.56 167.72,436.41 130.74,759.12 70.18,-233.41 18.23,-309.97 13.88,-595.21 6.58,-4.26 20.13,-12.31 22.92,-5.23 2.69,6.8 18.4,-3.98 21.98,-5.08 152.73,-46.88 51.38,-17.16 135.47,-146.6l115.04 289.94c102.38,445.64 167.72,280.94 -152.36,854.75 53.15,42.6 -21.38,25.44 78.42,0.17 57.97,-48.81 169.02,-276.21 210.8,-383.27 67.21,-172.25 0.65,-333.57 -46.97,-519.59 -404.39,-1579.64 -974.79,-3394.09 -1454.88,-4977.17 -148.66,-490.19 -188,-483.39 -478.5,-787.73 -908.68,-951.96 -2272.27,-2225.53 -3260.33,-3159.77 -265.54,-251.07 -334.74,-362.39 -735,-538.75 -281.94,-124.23 -603.34,-253.85 -923.48,-380.48 -310.22,-122.69 -1649.61,-699.82 -1858.35,-701.88l-146.53 -6.15c33.74,72.38 39.88,48.89 31.34,121.86l-38.94 94.22c-98.26,156.29 -137.81,32.59 -124.6,169.97z"/>
  <path class="fil0" d="M13577.24 6598.4c-46.33,246.88 -48.77,-9.44 -142.7,241.87 151.03,55.36 174.45,-87.13 173.88,181.83 198.92,-78.02 66.63,-37.89 200.04,-38.52l148.83 -49.43c198.31,-85.76 845.37,-688.92 1072.3,-876.56 125.11,-103.45 998.19,-844.7 1062.66,-849.09 -56.37,151.27 -95.28,325.72 -141.63,502.64 -608.09,2321.39 -1665.03,2712.47 -1834.97,2988.51 -36.63,76.51 -32.82,54.83 -78.79,106.86 -162.3,183.69 -11.26,108.55 -118.18,274.73 30.39,11.02 76.54,25.39 97.29,39.98 71.24,50.09 32.37,-7.28 71.79,77.61 -52.28,96.88 -74.66,100.76 -173,156.79l139 -29.79c94.98,-15.12 61.38,-3.63 152.3,-69.44 699.5,-506.24 1154.03,-942.51 1585.16,-1730.17 139.26,-254.41 645.51,-1562.09 747.65,-1926.6 52.98,-189.08 105.82,-503.83 187.51,-700.19 219.71,-41.55 540.94,236.44 708.72,345.88 275.47,179.69 1798.73,1168.71 1898.5,1166.75l429.17 76.77 26.99 -162.01c35.26,-185.28 17.39,-39.99 -86.45,-172.19 -57.18,-72.78 -1.94,30.61 -50.65,-80.12 -320.68,-249.82 -720.72,-459.78 -1116.48,-731.64 -318.63,-218.88 -875.77,-501.17 -1105.05,-730.15 43.08,-33.78 -23.64,-0.85 74.9,-38.59l255.88 -53.96c130.25,-19.89 263.48,-32.14 379.12,-48.18 130,-18.04 235.47,-31.86 373.48,-48.57 39.91,-4.84 144.52,-14.67 188.27,-23.87l109.75 -38.42c4.1,-10.56 16.26,-7.76 23,-13.59 -142.14,-27.65 -1182.27,106.28 -1352.56,138.61 170.27,-0.31 133.88,-38.38 275.35,-64.1 92.52,-16.83 248.27,-15.91 346.09,-16.94 -38.49,-144.69 115.16,-60.17 -138.25,-95.14 -26.68,-3.68 -179.08,3.22 -219.2,3.65 -336.1,3.62 -146.94,-38.12 -297.55,-68.94 71.47,-1.4 272.27,-31.98 334.13,-57.53 167.62,-69.24 56.21,-92.94 -8.33,-137.89 160.56,-2.8 43.09,11.86 87.86,-53.08 -269.38,12.53 -1293.53,153.13 -1456.39,260.54l-2829.44 2341.68z"/>
  <path class="fil0" d="M25777 20561.32c-15.35,-70.44 48.5,-5.76 -35.85,-101.08 128.93,62.74 -20.4,35.21 98.34,51.8 198.69,27.76 16.46,-7.37 134.11,-28.88l103.14 -1.59c60.51,2.36 116.79,5.33 179.35,5.34l-105.62 -139.46c8.29,-3.56 18.51,-19.19 20.8,-13.13l55.62 -42.42c-210.69,-170.35 -347.56,-310.34 -529.13,-519.58 -487.83,-562.23 -350.08,-698.94 -714.4,-519.7l-156.76 89.21c-75.17,51.69 -18.54,7.57 -68.12,52.28 51.63,458.97 694.38,2279.3 907.38,2769.47 58.31,134.2 339.31,761.07 303.3,846.43l-1305.96 -1570.3c-203.63,-259.83 -1116.37,-1232.7 -1410.43,-1478.55l-456.95 177.04 1155.04 1273c409.47,447.11 2406.07,2870.98 2722.14,3346.85 122.73,184.77 393.43,655.68 680.96,280.5 52.94,-310.29 -301.41,-885.64 -410.32,-1157.42 -272.01,-678.78 -1255,-2855.72 -1290.77,-3357.77 45.73,15.25 82.16,22.41 124.13,37.96z"/>
  <path class="fil0" d="M31485.6 14538.09l94.06 163.7c47.39,62.24 89.25,113.49 122.1,156.61 473.27,621.28 1157.68,1694.21 1232.4,2461.43l-72.6 14.45c85.26,93.46 62.01,20.9 92.28,197.71 15.33,89.55 10.59,175.11 1.34,282.27l-552.92 -15.13 589.01 41.83c27.62,158.05 51.86,432.62 -60.49,541.67 -6.22,863.63 -1272.6,2055.19 -2018.23,2499.49 -841.25,501.27 -1794.64,611.39 -2779.44,360.19 -204.94,-52.27 -681.44,-249.84 -846.04,-268.11l-75.38 22.74c836.95,323.14 1543.16,584.38 2516.61,426.99 392.9,-63.53 670.63,-192.84 826.97,-194.52l172.72 175.53c-532.51,407.04 -1850.37,379.09 -2532.57,282.7 -180.03,-25.43 -266.97,-89.42 -352.19,-15.93 432.2,234.95 1633.09,236.88 2171.34,114.91 670.7,-151.97 1244.94,-479.51 1678.19,-830.86 831.84,-674.6 1590.85,-1467.31 1790.38,-2584.2 38.19,-213.8 21.11,-387.88 55.92,-600.59l-56.37 -460.58 76.6 -64.33 -101.27 -9.07c-80.44,-709.06 -602.69,-1590.84 -988.87,-2155.73 -68.56,-100.29 -147.16,-223.24 -215.35,-312.1 -71.45,-93.11 -146.35,-170.16 -201.34,-265.55l-24.13 43.01c-20.48,72.36 -5.07,60.25 40.6,158.62 -124.63,-36.61 -62.13,-53.1 -164.76,-51.4 -160.19,2.66 47.26,69.56 -143.75,6.6 -91.12,-30.03 -196.87,-169.48 -268.67,-233.91l-6.15 111.56z"/>
  <path class="fil0" d="M22653.39 16819l105.89 23.41c111.1,-87.16 45.72,-76.34 153.34,-168.18l-63.67 -115.7c-3.72,-2.56 -12,-8.12 -15.93,-10.6l-186.3 -105.27c-202.27,-119.4 38.88,31.01 -89.48,-244.35 -3.47,-7.43 -11.7,-19.12 -15.95,-29.43 -59.4,-88.52 -212.69,-242.85 -300.02,-347.84 -486.73,-585.14 -1265.13,-2456.3 -1525.26,-3210.41 -201.49,-584.11 -1396.22,-3491.86 -1661.29,-3726.48 -420.85,497.98 -266.68,416.37 -22.01,964.67 154.1,345.34 303.36,735.09 458.42,1061.26l863.8 2167.5c278.63,790.37 977.94,2421.28 1498.29,3058.88 173.44,212.52 581.95,635.43 800.17,682.54z"/>
  <path class="fil0" d="M24093.31 3117.56c-61.65,91.77 -85.17,92.14 -185.24,174.82 -63.23,52.25 -100.18,93.35 -161.67,155.33 -119.74,120.69 -211.27,269.36 -315.76,363.81 -403.55,325.4 -2095.35,2917.49 -2175.61,3252.93l480.8 53.37c204.42,-301.33 348.41,-599.02 558.46,-922.68 376.68,-580.45 1485.37,-2281.18 1946.26,-2497.66 220.5,115.82 537.76,1137.73 644.02,1427.58 107.02,291.91 537.56,1264.01 569.87,1494.73l196.2 67.89c201.34,-189.8 100.35,-170.25 243.59,-203.91l3.68 -128.51c-25.43,-137.73 -893.41,-2308.74 -925.05,-2357.56 -37.21,-69.35 -52.04,-140.69 -94.13,-231.83 -28.47,-61.65 -65.55,-130.43 -109.94,-211.8 -105.76,-193.85 -179.2,-232.71 -255.17,-354.92 -168.13,-104.26 -178.21,-110.63 -420.31,-81.59z"/>
  <path class="fil0" d="M25777 20561.32c24.31,43.59 13.29,32.74 67.89,84.54l836.24 576.86c88.17,1009.94 61.24,1047.87 508.86,2029.66 104.41,229.01 743.76,1688.26 834.73,1735.47 223.07,23 252.42,-8.34 352.29,-160.97 95.73,-302.43 -1159.76,-2165.94 -1149.7,-3326.8l615.92 171.63c85.22,-73.49 172.16,-9.5 352.19,15.93 682.2,96.39 2000.06,124.34 2532.57,-282.7l-172.72 -175.53c-156.34,1.68 -434.07,130.99 -826.97,194.52 -973.45,157.39 -1679.66,-103.85 -2516.61,-426.99l75.38 -22.74c-170.68,-125.24 -380.23,-204.39 -564.13,-323.53 -181.12,-117.35 -368.49,-233.8 -496.05,-358.77l-55.62 42.42c-2.29,-6.06 -12.51,9.57 -20.8,13.13l105.62 139.46c-62.56,-0.01 -118.84,-2.98 -179.35,-5.34l-103.14 1.59c-117.65,21.51 64.58,56.64 -134.11,28.88 -118.74,-16.59 30.59,10.94 -98.34,-51.8 84.35,95.32 20.5,30.64 35.85,101.08z"/>
  <path class="fil0" d="M17863.07 3996.18c-44.77,64.94 72.7,50.28 -87.86,53.08 64.54,44.95 175.95,68.65 8.33,137.89 -61.86,25.55 -262.66,56.13 -334.13,57.53 150.61,30.82 -38.55,72.56 297.55,68.94 40.12,-0.43 192.52,-7.33 219.2,-3.65 253.41,34.97 99.76,-49.55 138.25,95.14 -97.82,1.03 -253.57,0.11 -346.09,16.94 -141.47,25.72 -105.08,63.79 -275.35,64.1 170.29,-32.33 1210.42,-166.26 1352.56,-138.61 253.6,29.4 4176.85,-583.05 4558.35,-633.3 73.08,62.19 24.6,-13.87 36.76,97.28 104.49,-94.45 196.02,-243.12 315.76,-363.81 61.49,-61.98 98.44,-103.08 161.67,-155.33 100.07,-82.68 123.59,-83.05 185.24,-174.82 -478.05,16.96 -1149,121.91 -1558.64,208.07 -480.78,101.13 -1094.12,156.25 -1578.92,228.33l-3092.68 442.22z"/>
  <path class="fil0" d="M19091.77 20367.78c93.24,80.89 332.6,207.66 479.73,174.69 77.93,-17.46 359.68,-156.05 441.31,-190.9l-146.03 -7.83c3.06,-180.4 -120.46,-393.23 -171.96,-594.61 -72.72,-284.32 -206.2,-1231.38 7.52,-1435.86 4.92,-4.71 12.66,-12.02 17.82,-16.47 5.16,-4.45 13.12,-11.5 18.53,-15.65 173.73,-133.22 320.8,-34.67 417.43,6.63 1004.27,429.29 908.43,434.1 1687.86,1035.72 111.2,85.83 146.73,104.36 168.73,184.95 143.53,-40.51 200.8,-81.53 337.05,-141.79 116.13,-51.36 217.1,-68.08 304.12,-108.17l-107.1 11.16c-152,-91.76 -759.44,-773.06 -1689.15,-1256.57 -204.82,-106.51 -444.85,-190.73 -728.47,-234.19 -844.57,-129.43 -852.43,385.83 -921.74,537.23 -322.86,705.14 59.3,1581.11 87.56,2108.24l-203.21 -56.58z"/>
  <path class="fil0" d="M10993.02 10603.9c10.97,108.42 68.52,66.61 226.59,58.3 104.77,-5.5 216.53,-13.76 321.08,-13.23 168.06,0.87 385.18,45.45 537.01,96.97 525.1,251.74 645.5,287.03 1013.5,641.62 511.56,492.92 1016.69,1226.56 1310.26,1937.15 82.85,200.55 367.69,1058.47 455.2,1172.52 68.82,-34.76 13.41,-3.17 67.58,-43.94l111.85 -101.34c37.54,-35.77 114.3,-104.64 135.15,-146.32 90.52,-180.91 -333.61,-1071.26 -411.39,-1237.21 -448.54,-956.93 -1205.56,-2039.4 -2138.26,-2522.25 -297.41,-153.96 -499.09,-246.28 -905.31,-258.76 -430.01,-13.2 -517.19,233.58 -723.26,416.49z"/>
  <path class="fil0" d="M20345.33 15769.53c-111.48,275.1 -468.85,806.92 -675.39,1032.34 -371.36,405.31 -331.62,439.84 -862.93,829.15 -249.59,182.89 -1955.93,1171.15 -2205.99,1234.05 -11.95,62.34 10.5,30.47 -43.65,102.9l-70.93 -110.53c48.73,195.21 48.67,231.89 212.76,319.5 119.69,63.9 216.08,124.22 347.71,181.12l-31.45 -126.25c388.56,-135.36 1960.96,-1086.31 2267.5,-1298.46 582.31,-403.02 1327.02,-1384.32 1522.51,-2014.1l10.74 -264.01c-127.22,-109.65 -75.15,-109.41 -286.37,-147.56l-115.44 201.33c-51.3,57.64 1.03,13.53 -69.07,60.52z"/>
  <path class="fil0" d="M25852.74 11655.4c13.71,150.84 -181.42,514.06 -264.22,779.88l-36.98 112.63c-2.98,8.74 -6.39,17.76 -9.33,26.32 -2.84,8.29 -6.13,17.34 -8.9,25.51 -2.74,8.05 -5.9,17.21 -8.57,25.22 -2.68,8.03 -5.7,17.34 -8.34,25.39l-24.91 79c-69.7,209.17 -45.01,16.14 -51.67,173.82 -18.13,-32.15 -37.17,28.17 11.34,-109.26 23.62,-66.92 66.24,-138.86 83.01,-173.92l162.26 -373.48c3.13,-7.19 7.3,-16.32 10.36,-23.54l262.37 -570.53 114.14 218.98c83.37,-123.5 21.2,-131.34 137.78,-170.77l-320.61 885.42c-29.06,63.96 -58.62,104.63 -37.14,179.16 25.77,-135.31 59.88,-203.42 155.65,-263.93 95.72,-156.92 161.03,-418.08 234.88,-587.5 242.79,-557 534.05,-1180.2 867.67,-1667.43 190.71,-278.52 522.67,-599.81 895.78,-800.57 829.94,-446.57 1308.85,-132.34 1364.19,-426.47l-5.61 -368.93c-953.55,-142.75 -1895.32,430.96 -2340.67,910.28 -299.66,322.52 -464.35,586.51 -683.42,976.4 -110.42,196.53 -470.07,916.79 -499.06,1118.32z"/>
  <path class="fil0" d="M27543.21 19985.77c-18.89,144.79 -11.97,-20.86 0.58,62.78 37.02,246.81 171.27,249.94 259.82,320.57l114.44 -40.22 925.84 -496.75c709.19,-337.22 2182.66,-662.66 3157.95,-1220.11 63.1,-70.48 -78.73,-41.38 101.03,-71.77 -53.45,-37.32 -106.99,-20.88 -163.63,-5.33 13.88,-20.88 27.56,-23.03 53.97,-69.97 88.44,-157.24 7.82,-144.6 -53.38,-172.03 -169.72,-76.06 -119.84,77.06 -220.49,-61.89l-107.55 33.99c-129.37,2.8 -857.25,316.36 -1016.86,386.39 -333.16,146.16 -756.2,262.98 -1115.6,375.67 -735.53,230.62 -1417.85,603.47 -1936.12,958.67z"/>
  <path class="fil0" d="M22110.54 8413.69l543.2 853.82c339.63,547.71 1214.56,2708.58 1305.23,2824.27 96.78,65.17 25.51,-46.88 119.37,137.62 34.92,68.63 36.48,110.76 49.61,195.5 59.42,-78.07 24.75,27.13 33.41,-83.4 9.04,-115.4 -115.44,-224.42 -190.02,-555.13 120.05,20.29 49.58,-22.61 113.57,108.1 7.58,-8.6 15.37,-35.18 18.26,-29.13l66.82 -147.89 370.25 823.57c89.75,-90 66.02,10.4 47.89,-148.82 -22.09,-119.69 -197.79,-464.03 -265.96,-627.7l-820.17 -1897.89c-195.89,-478.99 -1014.41,-1988.12 -1484.69,-2096.4 -152.61,-37.44 -28.26,-56.5 -118,34.79 53.11,25.57 440.22,354.39 483.75,441.33 -25.44,7.52 -78.51,5.25 -131.08,46.29 -85.08,66.42 -73.67,-33.5 -41.68,94.82 -8.84,-22.12 -13,-7.03 -51.32,-70.38 -69.36,72.35 -94.1,-97.02 -48.44,96.63z"/>
  <path class="fil0" d="M16020.65 8994.16c-5.41,199.19 -73.65,275.11 -141.69,404.35 -70.45,133.84 -395.3,1079.37 -458.03,1115.85 70.1,-19.18 152.84,-263.74 174,-329.31l189.03 52.48c56.31,-12.32 70.52,-52.97 92.83,-94.89 112.85,-212.03 37.64,52.99 153.56,-154.33 118.91,-212.67 -29.87,-35.5 206.8,-393.04 108.32,-163.64 44.91,-198.18 185.37,-270.26 74.48,-100.6 168.98,-344.11 254.12,-489.52 121.08,-206.78 184.43,-299.68 308.18,-438.36 578.74,-648.51 815.23,-165.29 976.28,-187.84 131.85,-69.26 264.67,-246.61 322.97,-427.62 -255.8,-156.29 -392.78,-261.6 -782.13,-244.72 -770.86,33.42 -1430.58,1167.02 -1481.29,1457.21z"/>
  <path class="fil0" d="M30181.69 9952.58c40.18,42.75 -60.4,45.88 72.55,35.51l10.53 -773.83 1278.1 155.49c-98.29,-74.11 -212.23,-82.83 -345.36,-97.98 -108.95,-12.39 -258.17,-30.07 -332.76,-69.09 69.46,49.47 101.87,19.5 184.23,-4.03 149.92,-331.64 104.14,-77.09 198.51,-240.87 2.77,-4.8 6.54,-15.57 8.44,-20.49l260.61 -56.36c-280.7,-149.59 -980.8,-56.42 -1247.73,-205.67 -79.32,-80 -39.87,-1539.33 -40.04,-1875.32l4.95 -491.79c30.16,-133.79 -53.38,-52.88 54.5,-103.36l-10.69 -4.75 -108.85 35.46c30.75,377.96 15.7,872.04 29.69,1270 12.15,345.79 -57,939.76 -18.37,1222.06 -59.25,-206.3 -62.64,-1214.22 -59.38,-1504.29 7.71,-685.51 119.81,-1138.16 -272.6,-1248.65l14.18 3786.82 266.71 62.22 52.78 128.92z"/>
  <path class="fil0" d="M35074.46 14357.73c62.55,233.08 254.58,616.1 135.29,844.84 -220.26,405.22 -471.11,836.59 -677.23,1182.36 -268.77,450.87 -495.09,615.57 -973.23,861.13l-76.6 64.33 56.37 460.58c560.88,-153.5 938.3,-460.3 1213.65,-846.21 175.98,-246.65 695.81,-1042.02 782.55,-1340.48 -99.8,25.27 -25.27,42.43 -78.42,-0.17 320.08,-573.81 254.74,-409.11 152.36,-854.75l-115.04 -289.94c-84.09,129.44 17.26,99.72 -135.47,146.6 -3.58,1.1 -19.29,11.88 -21.98,5.08 -2.79,-7.08 -16.34,0.97 -22.92,5.23 4.35,285.24 56.3,361.8 -13.88,595.21 36.98,-322.71 -62.43,-525.56 -130.74,-759.12 -0.44,-1.49 -30.48,-105.46 -30.67,-105.86 -52.85,-109.55 -2.21,-40.29 -78.66,-102.55l14.62 133.72z"/>
  <path class="fil0" d="M15716.49 14121.05c23.22,144.08 -12.48,31.86 42.84,63.21l46.64 -11.26c-60.34,310.05 -25.31,327.46 206.62,145.34 -42.63,153.78 -71.99,86.59 -100.24,242.05 102.6,-98.99 97.65,-155.5 228.07,-217.25 287.45,-372.52 1186.24,-2439.66 1300.82,-3003.24 -98.83,56.06 -4.68,-16.77 -66.68,62.03 -85.23,108.33 -2.1,54.28 -85.32,159.08 -4.97,-131.46 18.14,-165 56.33,-262.78 43.35,-110.97 68.46,-97.21 15.81,-189.31 -68.64,65.5 -166.44,264.52 -175.36,382.79l-110.53 -175.22c-2.94,-5.84 -8.43,-14.79 -10.72,-20.8 -46.91,-123.13 44.12,-264.05 59.52,-409.43 -138.64,106.23 -522.62,1329.31 -668.56,1681.03l-739.24 1553.76z"/>
  <path class="fil0" d="M23958.97 12091.78c123.56,541.79 1433.67,2964.5 1939.63,3026.89 62.56,-136.33 141.51,-273.26 166.6,-416.51 -149.59,-200.67 -398.22,-368.17 -578.17,-710.59 -157.53,-143.74 -288.57,-455.93 -407.23,-628.57 -88.53,-170.89 -148.06,-318.9 -239.15,-496.28 -43.58,-84.87 -72.22,-137.84 -112.93,-236.37 -23.18,-56.11 -21.91,-65.83 -53.96,-122.71l-85.63 -115.44c18.13,159.22 41.86,58.82 -47.89,148.82l-370.25 -823.57 -66.82 147.89c-2.89,-6.05 -10.68,20.53 -18.26,29.13 -63.99,-130.71 6.48,-87.81 -113.57,-108.1 74.58,330.71 199.06,439.73 190.02,555.13 -8.66,110.53 26.01,5.33 -33.41,83.4 -13.13,-84.74 -14.69,-126.87 -49.61,-195.5 -93.86,-184.5 -22.59,-72.45 -119.37,-137.62z"/>
  <path class="fil0" d="M26198.56 6726.9l-17.91 5.25c-57.64,87.94 -227.82,157.47 -316.93,244.66 -84.79,82.97 -48.27,87.51 -117.76,161.96 -47.27,50.67 -86.61,61.29 -167.22,119.61 -185.55,34.21 -1347.47,1464.8 -1476.64,1811.86l15.83 84.45c76.64,-114.59 89.14,-130.65 197.31,-195.55 102.68,69.84 69.61,72.67 123.64,112.71 80.35,59.55 74.27,61.78 192.81,38.8 226.26,-254.33 389.88,-571.5 628.43,-831.79 117.52,-128.24 228.14,-254.3 355.17,-386.11 82.11,-85.21 228.45,-298.64 398.41,-308.26 30.77,-103.66 8.86,-25.55 59.34,-85.64 4.67,-5.55 12.5,-13.17 17.41,-18.8 199.23,-228.73 60.56,-54.87 176.95,-145.06 -34.66,-64.79 -19.1,17.16 -31.67,-128.93 106.98,-66.77 178.36,-171.47 281.82,-229.73 -145.56,-158.21 -93.57,-200 -65.69,-258.9l-57.89 -7.47c-68.35,48.25 -83.41,67.61 -177.86,115.63 -52.7,-57.47 -120.69,109.29 -17.55,-98.69z"/>
  <path class="fil0" d="M17124.29 10886.26c-15.4,145.38 -106.43,286.3 -59.52,409.43 2.29,6.01 7.78,14.96 10.72,20.8l110.53 175.22c8.92,-118.27 106.72,-317.29 175.36,-382.79 52.65,92.1 27.54,78.34 -15.81,189.31 -38.19,97.78 -61.3,131.32 -56.33,262.78 83.22,-104.8 0.09,-50.75 85.32,-159.08 62,-78.8 -32.15,-5.97 66.68,-62.03 126.97,-211.23 289.37,-756.67 411.58,-1053 73.74,-178.76 143.37,-357.95 217.55,-522.89 81.24,-180.66 175.04,-341.11 243.5,-516.89 -80.5,4.41 -35.28,18.99 -79.18,-13.01 29.56,-121.11 150.35,-331.71 217.62,-456.41 234.51,-434.77 126.72,-64.44 90.35,-335.6 -95.37,131.18 -160.58,98.87 -329.74,152.89 50.39,-184.14 -7.13,-55.32 99.26,-203.4 -194.6,151.49 -573.98,929.09 -683.93,1178.55 -91.37,207.28 -512.52,1141.95 -503.96,1316.12z"/>
  <path class="fil0" d="M26198.56 6726.9c-103.14,207.98 -35.15,41.22 17.55,98.69 94.45,-48.02 109.51,-67.38 177.86,-115.63 42.45,-64.08 2.75,-18.11 54.08,-63.1 162.4,-142.38 1032.01,-562.48 1209.06,-629.48 490.61,-185.65 1015.97,-352.28 1570.3,-430.4 104.26,132.13 129.96,100.86 307.82,188.47 10.06,4.95 19.59,10.07 28.87,14.8l-684.47 132.92c-157.09,23.19 -103.76,13.61 -224.22,55.92 -145.28,51.03 -731.07,205.9 -824.27,339.21l184.05 -47.35c133.38,15.64 1265.6,-415.3 1719.23,-314.97 30.93,609.99 -41.56,3592.87 51.76,3878.93l395.51 117.67 -52.78 -128.92 -266.71 -62.22 -14.18 -3786.82c392.41,110.49 280.31,563.14 272.6,1248.65 -3.26,290.07 0.13,1297.99 59.38,1504.29 -38.63,-282.3 30.52,-876.27 18.37,-1222.06 -13.99,-397.96 1.06,-892.04 -29.69,-1270l108.85 -35.46 -137.72 -152.84c-45.15,-39.37 -88.17,-73.22 -131.14,-111.93 -256.36,-230.93 -257.03,-256.69 -619.08,-368.37 -292.4,-90.19 -194.93,-124.84 -371.95,-163.86 30.84,117 23.76,40.8 -14.59,106.94 -618.41,161.32 -980.4,256.38 -1535.75,491.22 -335.8,142 -1073.4,504.59 -1268.74,725.7z"/>
  <path class="fil0" d="M33236.21 13561.65l1754.97 1397.29c151.12,112.31 211.29,95.89 218.57,243.63 119.29,-228.74 -72.74,-611.76 -135.29,-844.84 -200.71,-173.37 -497.99,-359.98 -755.75,-562.13 -193.37,-151.66 -554.23,-479.95 -753.08,-596.13l-258.69 -130.63c-119.64,90 -217.71,341.91 -230.05,313.02 -2.39,-5.6 -11.83,12.57 -17.38,19.18 113.37,78.72 88.43,21.47 176.7,160.61z"/>
  <path class="fil0" d="M31080.99 17636.12l1171.01 155.93 150.26 7.08 552.92 15.13c9.25,-107.16 13.99,-192.72 -1.34,-282.27 -30.27,-176.81 -7.02,-104.25 -92.28,-197.71 -358.73,-30.08 -688.65,-67.54 -1041.63,-107.23 -254.59,-28.64 -796.47,-136.07 -1009.95,-111.82l-730.09 -40.61c50.17,119.48 481.68,70.73 609.72,132.26 -179.24,103.57 -416.8,-58.15 -488.62,104.33 64.97,1.03 156.45,-2.27 217.61,1.41 179.44,10.79 123.75,-26.38 170.45,70.65 -114.91,61.77 -249.32,8.69 -392.08,65.04 112.18,51.58 261.25,40.45 420.51,69.38l463.51 118.43z"/>
  <path class="fil0" d="M30276.85 12371.2c-171.99,94.16 -357.85,140.68 -572.32,261.98 -306.45,128.66 -991.14,742.93 -1055.63,990.03 62.94,100.77 -15.85,75.17 99.47,-18.3 203.93,-165.31 317.18,-390.77 819.12,-763.55 217.55,43.3 -143.74,20.99 139.01,55.1 160.09,19.31 17.54,-70.46 170.88,72.3 -167.07,69.85 -271.69,174.14 -395.09,272.42 -76.84,61.2 -118.97,97.4 -184,169.21 -60.26,66.54 -102.83,127.29 -169.55,177.2 89.94,111.37 -55.02,34.18 82.62,33.82 66.49,-33.17 272.89,-260.1 379.03,-342.23 110.77,-85.71 343.26,-233.97 456.17,-276.08l654.77 -225.97 579.09 -54.8 557.38 -95.03 -4.84 -147.64c-51.24,-36.13 -3.83,-12.66 -85.35,-33.49 -47.41,-12.1 -51.44,-7.15 -95.5,-14.22 -285.92,-45.87 -201.85,-140.35 -485.49,-179.1 -304.37,-38.22 -620.14,63.8 -889.77,118.35z"/>
  <path class="fil0" d="M26393.97 6709.96l57.89 7.47c-27.88,58.9 -79.87,100.69 65.69,258.9 -103.46,58.26 -174.84,162.96 -281.82,229.73 12.57,146.09 -2.99,64.14 31.67,128.93 117.24,-2.75 -23.28,-10.81 150.58,29.22l-42.06 -160.04c222.5,-137.7 475.97,-329.77 771.38,-494.86l867.89 -438.36 -184.05 47.35c93.2,-133.31 678.99,-288.18 824.27,-339.21 120.46,-42.31 67.13,-32.73 224.22,-55.92l684.47 -132.92c-9.28,-4.73 -18.81,-9.85 -28.87,-14.8 -177.86,-87.61 -203.56,-56.34 -307.82,-188.47 -554.33,78.12 -1079.69,244.75 -1570.3,430.4 -177.05,67 -1046.66,487.1 -1209.06,629.48 -51.33,44.99 -11.63,-0.98 -54.08,63.1z"/>
  <path class="fil0" d="M15385.65 10474.5l-255.6 698.65c-32.14,71.97 -55.29,80.25 -76.93,131.1 -30.96,72.77 -3.07,-23.59 -24.88,83.64 -23.63,116.21 -46.82,406.87 7.2,530.05 97.72,-21.12 46.54,-8.3 112.06,-65.73l133.09 -156.23c238.04,-375.2 66.41,-8.5 307.45,-552.66 89.54,-202.15 106.46,-144.76 106.89,-145.15 131.45,-286.32 237.41,-535.5 358.9,-816.96 62.13,-143.93 110.6,-258.39 185.6,-411.16 69.79,-142.14 138.35,-257.49 183.09,-445.04 -140.46,72.08 -77.05,106.62 -185.37,270.26 -236.67,357.54 -87.89,180.37 -206.8,393.04 -115.92,207.32 -40.71,-57.7 -153.56,154.33 -22.31,41.92 -36.52,82.57 -92.83,94.89l-189.03 -52.48c-21.16,65.57 -103.9,310.13 -174,329.31 62.73,-36.48 387.58,-982.01 458.03,-1115.85 68.04,-129.24 136.28,-205.16 141.69,-404.35 -64.06,50.83 -29.06,17.74 -78.38,86.54 -71.95,100.36 -556.48,1283.84 -556.62,1393.8z"/>
  <path class="fil0" d="M26267.4 7334.99c-116.39,90.19 22.28,-83.67 -176.95,145.06 -4.91,5.63 -12.74,13.25 -17.41,18.8 -50.48,60.09 -28.57,-18.02 -59.34,85.64 55.44,273.33 849.61,1243.02 1049.35,1326.86l379 -241.69c-36.27,-118.11 -428.48,-482.42 -550.29,-641.85 -100.81,-131.93 -167.13,-205.15 -260.13,-339.02 -67.65,-97.36 -161.84,-273.78 -213.65,-324.58 -173.86,-40.03 -33.34,-31.97 -150.58,-29.22z"/>
  <path class="fil0" d="M25192.87 3944.2c182.53,97.04 508.8,192.19 708.08,270.37 249.67,97.95 536.64,238.65 808.87,300.97 -13.21,-137.38 26.34,-13.68 124.6,-169.97l38.94 -94.22c8.54,-72.97 2.4,-49.48 -31.34,-121.86l146.53 6.15c-99.19,-106.45 -851.8,-355.41 -1053.32,-434.04 -173.93,-67.88 -237.31,-113.75 -404.05,-125.72 -162.49,17.31 -108.31,-10.26 -238.72,-43.35 86.49,70.57 83.73,66.29 190.78,117.43l-135.17 80.82c27.46,58.35 41.25,120.48 67.13,193.95l-222.15 -49.61c-24.96,33.28 -60.78,-56.49 -0.18,69.08z"/>
  <path class="fil0" d="M25275.63 13128.12c21.4,207.33 -3.28,54.81 47.2,144.82 2.55,4.54 81.05,88.31 81.51,88.63l194.35 133.24c14.89,-41.81 2.7,-34.8 29,-78.89 48.14,-80.72 17.63,-44 78.92,-97.32 89.42,-228.57 253.87,-542.44 312.37,-817.3 -95.77,60.51 -129.88,128.62 -155.65,263.93 -21.48,-74.53 8.08,-115.2 37.14,-179.16l320.61 -885.42c-116.58,39.43 -54.41,47.27 -137.78,170.77l-114.14 -218.98 -262.37 570.53c-3.06,7.22 -7.23,16.35 -10.36,23.54l-162.26 373.48c-16.77,35.06 -59.39,107 -83.01,173.92 -48.51,137.43 -29.47,77.11 -11.34,109.26 6.66,-157.68 -18.03,35.35 51.67,-173.82l24.91 -79c2.64,-8.05 5.66,-17.36 8.34,-25.39 2.67,-8.01 5.83,-17.17 8.57,-25.22 2.77,-8.17 6.06,-17.22 8.9,-25.51 2.94,-8.56 6.35,-17.58 9.33,-26.32l36.98 -112.63c82.8,-265.82 277.93,-629.04 264.22,-779.88 -104,92.37 -581.51,1338.92 -577.11,1472.72z"/>
  <path class="fil0" d="M22110.54 8413.69c-45.66,-193.65 -20.92,-24.28 48.44,-96.63 38.32,63.35 42.48,48.26 51.32,70.38 -31.99,-128.32 -43.4,-28.4 41.68,-94.82 52.57,-41.04 105.64,-38.77 131.08,-46.29 -43.53,-86.94 -430.64,-415.76 -483.75,-441.33 89.74,-91.29 -34.61,-72.23 118,-34.79 -222,-291.95 -901.58,-348.86 -1270.14,17.51 84.09,121.97 154.43,201.64 247.82,339.45 232.01,-41.65 337.82,-185.85 651.2,-37.3 219.61,104.11 287.88,236.05 464.35,323.82z"/>
  <path class="fil0" d="M28882.65 11633.81c66.96,149.11 284.33,340.72 413.22,481.34l329.2 341.26c101.59,108.23 72.53,48.71 79.46,176.77 214.47,-121.3 400.33,-167.82 572.32,-261.98 -131.33,-34.8 -286.93,-281.36 -391.08,-386.59 -87.46,-88.35 -284.91,-330.72 -386.38,-351.79 -528.35,-284.86 -195.6,-110.47 -616.17,-80.17l-0.57 81.16z"/>
  <path class="fil0" d="M23168.56 10555.3c-127.51,303 -115.99,192.14 -190.26,338.43l-190.58 377.06c-213.62,430.96 -22.56,720.27 119.01,765.06 175.12,55.41 192.57,-82.78 286.69,-294.22 65.02,-146.05 136.64,-240.32 191.85,-362.06 132.83,-292.93 -126.92,-580.14 -216.71,-824.27z"/>
  <path class="fil0" d="M27274.61 17829.36c424.44,-44.09 800.28,-195 1264.94,-272.75 410.85,-68.74 1093.1,-33.26 1540.62,-24.13 -316.47,-130.58 -875.56,12.59 -1061.6,-100.63l284.64 -66.96c-144.49,-44.26 -15.88,-1.8 -105.15,-104.35l100.16 -74.97c118.31,-80.36 -14.48,49.25 40.02,-17.69l-298.38 -88.88c9.6,-6.9 21.89,-15.62 30.53,-21.83l58.57 -41.82 -372.85 36.46c-25.11,-46.73 -113.03,70.81 1.32,-104.01 -239.7,147.92 -425.3,297.75 -714.28,464.67 -130.4,75.33 -253.8,140.17 -384.26,211.4 -131.33,71.71 -258.61,116.34 -384.28,205.49z"/>
  <path class="fil0" d="M30046.56 13003.1l131.27 -0.68c52.99,150.03 293.79,374.25 395.18,482.61 92.01,98.33 318.84,399.87 431.71,448.97l-28.56 131.95c112.65,-92.15 307.94,-403.48 376,-524.11 -171.36,-44.14 -312.19,-347.66 -529.96,-551.68 -106.15,-99.44 -150.06,-81.77 -120.87,-213.03l-654.77 225.97z"/>
  <path class="fil0" d="M13060.47 9352.64l-34.7 79.21c-20.07,90.81 95.7,139.61 -99.37,230.82 -199.95,93.5 -95.61,186.2 -40.19,190.69 133.48,10.81 74.24,-12.83 142.41,-19.52 148.44,-14.57 -65.87,94.86 193.81,-6.76 144.12,-56.39 266.4,-175.38 413.23,-212.98 83.71,-26.83 132.4,-62.56 215.68,-113.49 88.34,-54.03 154.85,-92.98 202.42,-174.78l-139 29.79c98.34,-56.03 120.72,-59.91 173,-156.79 -39.42,-84.89 -0.55,-27.52 -71.79,-77.61 -20.75,-14.59 -66.9,-28.96 -97.29,-39.98 106.92,-166.18 -44.12,-91.04 118.18,-274.73 45.97,-52.03 42.16,-30.35 78.79,-106.86 -130.37,43.86 -411.81,253.66 -541.85,344.86 -147.96,103.77 -386,244.64 -513.33,308.13z"/>
  <path class="fil0" d="M24699.16 15920.75c96.66,-118.86 238.58,-569.54 304.37,-739.25 99.8,-257.45 110.94,-508.17 -187.39,-674.66 -21.62,-12.07 -4.1,-14.06 -104.65,-43.81 -160.27,541.27 -469.73,861.73 -246.59,1180.92 42.22,60.38 162.46,245.56 234.26,276.8z"/>
  <path class="fil0" d="M19333.6 6412.06c53.07,79.57 13.18,26.39 62.87,77l793.95 524.29c180.6,43.76 191.76,130.92 363.01,97.69 210.61,-40.88 150.54,-113.45 205.19,-287.99l-116.08 -123.51 -989.88 -625.03c48.71,110.73 -6.53,7.34 50.65,80.12 103.84,132.2 121.71,-13.09 86.45,172.19l-26.99 162.01 -429.17 -76.77z"/>
  <path class="fil0" d="M30080.17 17532.48l1000.82 103.64 -463.51 -118.43c-159.26,-28.93 -308.33,-17.8 -420.51,-69.38 142.76,-56.35 277.17,-3.27 392.08,-65.04 -46.7,-97.03 8.99,-59.86 -170.45,-70.65 -61.16,-3.68 -152.64,-0.38 -217.61,-1.41 71.82,-162.48 309.38,-0.76 488.62,-104.33 -128.04,-61.53 -559.55,-12.78 -609.72,-132.26l730.09 40.61 -1681.02 -99.88 -58.57 41.82c-8.64,6.21 -20.93,14.93 -30.53,21.83l298.38 88.88c-54.5,66.94 78.29,-62.67 -40.02,17.69l-100.16 74.97c89.27,102.55 -39.34,60.09 105.15,104.35l-284.64 66.96c186.04,113.22 745.13,-29.95 1061.6,100.63z"/>
  <path class="fil0" d="M13635.66 9614.1c-146.83,37.6 -269.11,156.59 -413.23,212.98 -259.68,101.62 -45.37,-7.81 -193.81,6.76 -68.17,6.69 -8.93,30.33 -142.41,19.52 -55.42,-4.49 -159.76,-97.19 40.19,-190.69 195.07,-91.21 79.3,-140.01 99.37,-230.82l34.7 -79.21c-244.44,84.75 -914.75,511.45 -1140.45,649.3l79.65 78.45c440.19,339.62 767.64,48.68 1244.72,-197.83 134.98,-69.75 313.85,-137.87 391.27,-268.46z"/>
  <path class="fil0" d="M28648.9 13623.21c-99.36,70.5 -307.42,353.2 -332,447.52 -22.17,156.28 -9.18,27.47 26.81,82.3 18.85,-44.23 111.8,-195.36 139.83,-235.73 110.6,4.4 224.05,55.49 305,149.86 -34.51,103.55 -82.31,175.02 -139.99,246.95 -71.6,-43.26 -23.76,-4.42 42.03,-17.77l129.61 -128.75c117.15,-158.62 344.64,-429.16 391.17,-546.18 -137.64,0.36 7.32,77.55 -82.62,-33.82 66.72,-49.91 109.29,-110.66 169.55,-177.2 65.03,-71.81 107.16,-108.01 184,-169.21 123.4,-98.28 228.02,-202.57 395.09,-272.42 -153.34,-142.76 -10.79,-52.99 -170.88,-72.3 -282.75,-34.11 78.54,-11.8 -139.01,-55.1 -501.94,372.78 -615.19,598.24 -819.12,763.55 -115.32,93.47 -36.53,119.07 -99.47,18.3z"/>
  <path class="fil0" d="M27711.28 14727.2c-273.82,116.91 -405.34,429.79 -441.96,758.28 222.25,-31.4 402.14,-129.59 566.7,-256.03 191.53,-147.18 309.29,-214.64 427.86,-421.28 -78.03,15.77 -38.01,22.17 -72.2,-0.17 82.7,-88.68 285.79,-330.78 308.24,-449.43l-167.15 133.98 -201.45 -99.21c-103.67,139.02 -244.37,235.23 -372.09,382.98l-47.95 -49.12z"/>
  <path class="fil0" d="M24218.43 17815.61c-20.21,223.54 133.99,531.91 201.42,689.36l279.13 -86.73c135.14,-98.93 298.77,-83.64 403.82,-210.67 -266.55,133.7 -206.49,99.19 -275.75,-139.33 -50.48,-173.82 -60.85,-306.31 -122,-438.2 -9,-7.61 -18.89,-17.69 -25.93,-24.03 -251.59,-226.63 -195.51,-157.16 -468.95,-122.25l8.26 331.85z"/>
  <path class="fil0" d="M15694.93 10998.17c-0.43,0.39 -17.35,-57 -106.89,145.15 -241.04,544.16 -69.41,177.46 -307.45,552.66l-133.09 156.23c-65.52,57.43 -14.34,44.61 -112.06,65.73 -54.02,-123.18 -30.83,-413.84 -7.2,-530.05 21.81,-107.23 -6.08,-10.87 24.88,-83.64 21.64,-50.85 44.79,-59.13 76.93,-131.1l255.6 -698.65c-129.58,102.85 -432.92,870.75 -511.85,1033.88 -48.9,101.09 -202.51,415.74 -175.79,536.33 12.06,54.38 254.56,374.44 299.76,418.3 107.46,-147.84 683.5,-1245.35 697.16,-1464.84z"/>
  <path class="fil0" d="M18312.18 8391.59c-106.39,148.08 -48.87,19.26 -99.26,203.4 169.16,-54.02 234.37,-21.71 329.74,-152.89 36.37,271.16 144.16,-99.17 -90.35,335.6 -67.27,124.7 -188.06,335.3 -217.62,456.41 43.9,32 -1.32,17.42 79.18,13.01 126.53,-168.78 216.23,-393.27 364.22,-600.62 80.5,-112.78 137.92,-187.17 226.13,-267.59 122.39,-111.57 184.78,-135.07 255.78,-255.03l-134.79 36.6c-7.23,-14.77 -17.74,-35.66 -20.23,-29.41 -2.4,6 -14.35,-17.54 -17.35,-22.09 -52.53,-79.71 -78.47,-27.47 -24.95,-131.13 94.31,-182.67 82.27,37.2 132.83,-194.54 -119.03,16.21 -141.71,40.32 -217.18,88.11 -83.68,-69.26 -33.9,44 -22.43,-91.52 -121.11,66.8 -491.89,430.09 -543.72,611.69z"/>
  <path class="fil0" d="M24102.1 9070.24c-58.26,47.02 -13.47,4.88 -62.9,64.68 -324.4,392.41 -188.55,542.57 -45.6,923.6 102.29,-27.27 603.94,-854.12 638.09,-947.87 -118.54,22.98 -112.46,20.75 -192.81,-38.8 -54.03,-40.04 -20.96,-42.87 -123.64,-112.71 -108.17,64.9 -120.67,80.96 -197.31,195.55l-15.83 -84.45z"/>
  <path class="fil0" d="M32143.13 17966.63c-97.69,2.84 -165.76,60.81 -255.78,106.61 -44.95,22.87 -116.02,54.01 -140.65,68.94 -143.05,86.73 -66.39,29.53 -134.91,122.86l107.55 -33.99c100.65,138.95 50.77,-14.17 220.49,61.89 61.2,27.43 141.82,14.79 53.38,172.03 -26.41,46.94 -40.09,49.09 -53.97,69.97 56.64,-15.55 110.18,-31.99 163.63,5.33 -179.76,30.39 -37.93,1.29 -101.03,71.77 141.27,-33.7 289.3,-124.93 377.84,-196.7l180.15 -189.76c55.62,-88.69 36.68,-143.2 0.65,-242.59 -175.71,-78.42 -244.48,-88.25 -417.35,-16.36z"/>
  <path class="fil0" d="M24972.86 3997.7c-30.2,-220.7 -22.93,-56.03 43.8,-114.93l176.21 61.43c-60.6,-125.57 -24.78,-35.8 0.18,-69.08l222.15 49.61c-25.88,-73.47 -39.67,-135.6 -67.13,-193.95l135.17 -80.82c-107.05,-51.14 -104.29,-46.86 -190.78,-117.43 130.41,33.09 76.23,60.66 238.72,43.35 -100.77,-108.24 -820.69,-336.21 -1017.56,-376.73 75.97,122.21 149.41,161.07 255.17,354.92 44.39,81.37 81.47,150.15 109.94,211.8 42.09,91.14 56.92,162.48 94.13,231.83z"/>
  <path class="fil0" d="M33236.21 13561.65c-88.27,-139.14 -63.33,-81.89 -176.7,-160.61 5.55,-6.61 14.99,-24.78 17.38,-19.18 12.34,28.89 110.41,-223.02 230.05,-313.02l258.69 130.63c-6.47,-7.97 -17.06,-29.31 -20.72,-22.76l-41.04 -42.91c-132,-126.48 -537.43,-444.89 -690.82,-459.34 -53.04,82.09 -184.79,278.91 -202.3,369.65 65.64,167.32 440.29,436.18 625.46,517.54z"/>
  <path class="fil0" d="M22759.28 16842.41c120.08,91.53 359.23,140.63 530.1,100.91 278.11,-64.65 84.61,-221.12 155.54,-420.28 -156.03,-4.21 -333.08,-23.27 -473.12,-94.86l-118.05 -81.08 -312.46 -178.22c4.25,10.31 12.48,22 15.95,29.43 128.36,275.36 -112.79,124.95 89.48,244.35l186.3 105.27c3.93,2.48 12.21,8.04 15.93,10.6l63.67 115.7c-107.62,91.84 -42.24,81.02 -153.34,168.18z"/>
  <path class="fil0" d="M27868.1 10569.73l-5.1 -144.05c105.65,-37.27 77.44,-46.66 144.35,-140.44l335.13 54.07c-70.7,-130.78 -477.23,-559.69 -503.6,-566.54 -164.18,-0.22 -331.17,153.23 -383.08,272.73l412.3 524.23z"/>
  <path class="fil0" d="M28316.9 14070.73c-109.93,73.5 -79.87,64.95 -162.67,170.81 -49.77,63.64 -90.21,111.17 -144.67,172.9 -97.6,110.64 -227.53,215.38 -298.28,312.76l47.95 49.12c127.72,-147.75 268.42,-243.96 372.09,-382.98l201.45 99.21 167.15 -133.98c-22.45,118.65 -225.54,360.75 -308.24,449.43 34.19,22.34 -5.83,15.94 72.2,0.17 82.31,-25.25 373.18,-383.92 426.7,-511.83 -65.79,13.35 -113.63,-25.49 -42.03,17.77 57.68,-71.93 105.48,-143.4 139.99,-246.95 -80.95,-94.37 -194.4,-145.46 -305,-149.86 -28.03,40.37 -120.98,191.5 -139.83,235.73 -35.99,-54.83 -48.98,73.98 -26.81,-82.3z"/>
  <path class="fil0" d="M27868.1 10569.73c62.85,76.02 95.64,122.02 183,214.5 53.63,56.77 163.79,150.52 201.12,220.09l200.81 -203.54c75.98,-75.9 145.5,-127.84 202.76,-193.14 -101.6,-15.72 -54.42,-3.57 -120.6,-58.97 -16.36,-13.69 -49.66,-56.8 -66.37,-76.42 -36.36,-42.7 -84.35,-96.99 -126.34,-132.94l-335.13 -54.07c-66.91,93.78 -38.7,103.17 -144.35,140.44l5.1 144.05z"/>
  <path class="fil0" d="M22759.28 16842.41l-105.89 -23.41c60.09,103.37 -42.87,18.46 106.34,104.22 271.52,156.06 781.75,131.4 1110.86,-69.11 -6.45,-165.46 -172.01,-389.03 -305.21,-413.41 -105.89,-19.38 -249.29,12.77 -380.93,-6.73 -116.87,-17.3 -187.27,-58.73 -330.7,-86.87l118.05 81.08c140.04,71.59 317.09,90.65 473.12,94.86 -70.93,199.16 122.57,355.63 -155.54,420.28 -170.87,39.72 -410.02,-9.38 -530.1,-100.91z"/>
  <path class="fil0" d="M31324.37 14459.21c88.06,4.14 67.1,-1.58 161.23,78.88l6.15 -111.56c71.8,64.43 177.55,203.88 268.67,233.91 191.01,62.96 -16.44,-3.94 143.75,-6.6 102.63,-1.7 40.13,14.79 164.76,51.4 -45.67,-98.37 -61.08,-86.26 -40.6,-158.62l24.13 -43.01c-206.4,-332.01 -393.94,-378.56 -401.96,-511.8 -95.71,83.24 -265.96,358.87 -326.13,467.4z"/>
  <path class="fil0" d="M27918.05 20328.9l-114.44 40.22c-88.55,-70.63 -222.8,-73.76 -259.82,-320.57 -12.55,-83.64 -19.47,82.01 -0.58,-62.78 -162.52,50.38 -269.92,199.26 -367.75,325.56 31.13,173.43 124.81,329.58 341.29,305.78 93.38,-10.26 268.57,-149.91 340.12,-220.05 47.75,-46.81 20.25,-15.27 61.18,-68.16z"/>
  <path class="fil0" d="M28598.14 11389.84c137.44,49.15 22.61,-10.5 135.77,123.44 78.69,93.14 43.83,66.56 148.74,120.53l0.57 -81.16c420.57,-30.3 87.82,-204.69 616.17,80.17 -53.11,-107.85 -54,-102.35 -136.4,-185.7l-282.32 -280.42c-124.19,-114.56 -93.92,-31.23 -109.47,-177.24l-356.45 374.02c-2.95,-6.02 -11.19,17.5 -16.61,26.36z"/>
  <path class="fil0" d="M25454.44 6619.79c56.71,114.86 86.26,188.48 151.81,301.78 116.18,200.84 73.27,137.09 -27.51,336.81 80.61,-58.32 119.95,-68.94 167.22,-119.61 69.49,-74.45 32.97,-78.99 117.76,-161.96 89.11,-87.19 259.29,-156.72 316.93,-244.66 -235.83,-26.91 -40.43,-2.43 -244.72,-326.8 -3.89,-6.17 -15.56,-10.04 -18.52,-24.82 -3.05,-15.23 -12.8,-17.01 -19.5,-25.27l-3.68 128.51c-143.24,33.66 -42.25,14.11 -243.59,203.91l-196.2 -67.89z"/>
  <path class="fil0" d="M25079.8 13363c118.66,172.64 249.7,484.83 407.23,628.57 -2.61,-104.63 65.12,-188.1 113.82,-321.84 49.92,-137.09 84.82,-194.62 105.76,-351.13 -61.29,53.32 -30.78,16.6 -78.92,97.32 -26.3,44.09 -14.11,37.08 -29,78.89l-194.35 -133.24c-0.46,-0.32 -78.96,-84.09 -81.51,-88.63 -50.48,-90.01 -25.8,62.51 -47.2,-144.82 -177.5,138.8 -14.28,253.64 -195.83,234.88z"/>
  <path class="fil0" d="M32143.13 17966.63c172.87,-71.89 241.64,-62.06 417.35,16.36 36.03,99.39 54.97,153.9 -0.65,242.59l-180.15 189.76c200.39,-79.04 378.06,-222.76 502.4,-358.25 -33.14,-137.92 -11.71,-44.13 -49.02,-94.88l-70.41 -79.88 194.67 -2.67 -26.54 502.97c112.35,-109.05 88.11,-383.62 60.49,-541.67l-589.01 -41.83 -150.26 -7.08c43.06,53.59 -38.44,14.57 63.55,70.09 -42.64,14.14 -40.95,5.42 -82.54,29.95 -103,60.76 -36.82,11.88 -89.88,74.54z"/>
  <path class="fil0" d="M20190.42 7013.35c65.88,83.92 347.39,271.83 453.71,277.42 76.71,4.03 408.3,-149.97 466.14,-208.61 -57.03,-160.52 -298.64,-304.36 -467.73,-382.62l116.08 123.51c-54.65,174.54 5.42,247.11 -205.19,287.99 -171.25,33.23 -182.41,-53.93 -363.01,-97.69z"/>
  <path class="fil0" d="M24218.43 17815.61l-8.26 -331.85c273.44,-34.91 217.36,-104.38 468.95,122.25 7.04,6.34 16.93,16.42 25.93,24.03 -11.05,-168.75 -23.42,-362.72 -135.23,-432.23 -68.64,-42.67 -310.36,-88.31 -424.15,-86.19l72.76 703.99z"/>
  <path class="fil0" d="M20345.33 15769.53c70.1,-46.99 17.77,-2.88 69.07,-60.52l115.44 -201.33c211.22,38.15 159.15,37.91 286.37,147.56l-10.74 264.01c277.33,-327.34 133.98,-659.58 -92.7,-745.34 -111.21,68.98 -43.79,4.91 -116.52,117.41 -23.83,36.85 -67.17,122.02 -88.08,159.23 -49.89,88.75 -108.44,204.25 -162.84,318.98z"/>
 </g>

 <text x="22000" y="23000" text-anchor="middle" font-family="Inter, Arial, Helvetica, sans-serif" font-weight="700" font-size="2800" fill="#E0E0E0" letter-spacing="-50">myreson<tspan fill="url(#brainGrad)">.AI</tspan></text>
</svg>
