<svg width="600" height="200" viewBox="0 0 600 200" xmlns="http://www.w3.org/2000/svg">
    <defs>
        <linearGradient id="phaseGradient" x1="0%" y1="0%" x2="100%" y2="100%">
            <stop offset="0%" style="stop-color:#007CF0;stop-opacity:1" />
            <stop offset="100%" style="stop-color:#00DFD8;stop-opacity:1" />
        </linearGradient>

        <mask id="braidMask">
            <rect width="600" height="200" fill="white" />
            <path d="M40,60 Q60,10 90,40 T140,50 Q160,90 130,120 T70,110 Q30,90 40,60" stroke="black" stroke-width="6" fill="none" transform="translate(30, 30)"/>
        </mask>
    </defs>

    <g transform="translate(30, 30)">
        <path d="M40,60 Q60,10 90,40 T140,50 Q160,90 130,120 T70,110 Q30,90 40,60" fill="none" stroke="url(#phaseGradient)" stroke-width="4" opacity="0.9"/>

        <g mask="url(#braidMask)">
            <path d="M50,70 Q75,30 100,60 T130,80" fill="none" stroke="#00DFD8" stroke-width="3" opacity="0.7"/>
            <path d="M45,85 Q80,110 120,70" fill="none" stroke="#007CF0" stroke-width="3" opacity="0.6"/>
        </g>

        <circle cx="90" cy="40" r="3" fill="white" />
        <circle cx="140" cy="50" r="3" fill="white" />
        <circle cx="70" cy="110" r="3" fill="white" />
    </g>

    <text x="200" y="115" font-family="Inter, Arial, sans-serif" font-weight="700" font-size="52" fill="#E0E0E0">myreson<tspan fill="url(#phaseGradient)">.AI</tspan></text>
</svg>