<svg xmlns="http://www.w3.org/2000/svg" xmlns:v="https://svgstorm.com" viewBox="0 0 1772 592" width="1772" height="592">
<g fill="#000000" fill-opacity="1.00" stroke="None">
<path d="M 0.00 592.00 L 1772.00 592.00 L 1772.00 0.00 L 0.00 0.00 L 0.00 592.00
M 455.00 114.00 C 475.59 116.90 470.46 148.96 450.00 146.00 C 429.54 143.04 435.69 111.28 455.00 114.00
M 404.00 140.00 C 388.03 142.70 372.00 144.45 356.00 147.00 C 351.73 147.68 347.22 147.97 343.00 149.00 C 350.63 154.35 358.57 160.81 367.00 165.00 C 374.79 169.21 381.41 174.26 388.00 180.00 C 389.65 181.14 391.14 182.27 393.00 183.00 C 390.90 185.31 385.40 190.55 383.00 186.00 C 364.89 177.47 349.88 162.28 332.00 153.00 C 327.34 165.93 324.02 179.21 319.00 192.00 C 314.78 203.73 308.51 211.18 299.00 219.00 C 288.84 227.35 277.80 242.02 264.00 243.00 C 270.42 247.48 277.47 251.49 283.25 257.75 C 289.03 264.01 295.52 269.60 297.75 278.25 C 299.98 286.89 310.32 292.20 307.99 303.01 C 305.66 313.82 292.83 304.66 292.68 296.32 C 292.52 287.98 286.69 280.61 281.75 274.25 C 276.80 267.90 270.14 260.65 263.92 257.08 C 257.70 253.51 238.99 252.31 249.00 241.00 C 253.36 231.35 269.23 229.18 278.08 222.08 C 286.92 214.97 296.30 209.03 302.75 198.75 C 309.20 188.48 315.25 176.33 317.00 164.00 C 292.59 185.03 263.42 203.46 242.00 229.00 C 239.07 228.26 235.47 226.97 234.00 224.00 C 233.81 223.59 234.00 223.00 234.00 223.00 C 234.27 209.63 254.62 201.15 263.23 192.23 C 271.84 183.31 286.60 173.66 296.70 165.70 C 306.80 157.73 318.87 142.83 331.00 142.00 C 333.05 141.53 334.81 141.29 337.00 141.00 C 342.29 139.66 346.89 138.23 353.00 138.00 C 368.14 137.42 383.10 134.13 398.00 132.00 C 409.38 130.37 420.47 128.12 432.00 127.00 C 432.00 130.00 432.00 133.00 432.00 136.00 C 422.57 136.88 413.32 138.56 404.00 140.00 Z"/>
</g>
</svg>
